<svg id="Calque_1" data-name="Calque 1" xmlns="http://www.w3.org/2000/svg" viewBox="0 0 206.3 176.11"><defs><style>.cls-1{fill:#ccbaba;}.cls-2{fill:#d37575;}</style></defs><title>logo-adm</title><path class="cls-1" d="M128.46,44.44A485.13,485.13,0,0,0,79.24,158.82a479.42,479.42,0,0,0-11.88,53c-1-.43-24.89-9.85-37.49,2.23a20.74,20.74,0,0,0-4.55,6.49c-.39.85,14.07-39,31.55-72.69A504.06,504.06,0,0,1,128.46,44.44Z" transform="translate(-25.31 -44.44)"/><path class="cls-1" d="M128.46,44.44a485.53,485.53,0,0,1,49.23,114.38,481.56,481.56,0,0,1,11.87,53c1.06-.43,24.9-9.85,37.5,2.23a20.73,20.73,0,0,1,4.54,6.49c.39.85-14.07-39-31.55-72.69A504.06,504.06,0,0,0,128.46,44.44Z" transform="translate(-25.31 -44.44)"/><path class="cls-2" d="M128.46,161.06a77.86,77.86,0,0,0-52.32-47q-3.89,6.23-7.8,12.92-3.74,6.4-7.09,12.59c3.13,0,6.36.11,9.69.4C95.24,142,114.77,151.82,128.46,161.06Z" transform="translate(-25.31 -44.44)"/><path class="cls-2" d="M128.25,161.06a77.55,77.55,0,0,1,52.54-47q3.89,6.21,7.78,12.9,3.77,6.45,7.15,12.69c-3.2,0-6.52,0-9.95.31C161.29,141.88,141.71,151.87,128.25,161.06Z" transform="translate(-25.31 -44.44)"/><path d="M106.81,129.94a134,134,0,0,1,15.25-.92c10.3,0,17.64,1.82,22.51,5.32a17.82,17.82,0,0,1,7.85,15.42,20.16,20.16,0,0,1-8,16.72c-5.19,4-13.75,6.21-24.55,6.23-5.11,0-9.39-.18-13-.49Zm7.24,38a57.83,57.83,0,0,0,7.25.3c15.33,0,23.65-6.67,23.62-18.28.07-10.14-7.36-16.56-22.52-16.54A53.07,53.07,0,0,0,114,134Z" transform="translate(-25.31 -44.44)"/></svg>