<svg xmlns="http://www.w3.org/2000/svg" viewBox="0 0 572.07 41.81"><defs><style>.cls-1{fill:#fff;}</style></defs><title>Fichier 4citation-auteur</title><g id="Calque_2" data-name="Calque 2"><g id="Calque_1-2" data-name="Calque 1"><path class="cls-1" d="M24.08,5.18a8.87,8.87,0,0,0-3.21-1.65A15.41,15.41,0,0,0,16.61,3a13.42,13.42,0,0,0-4.17.61A12.49,12.49,0,0,0,9,5.29,12.19,12.19,0,0,0,6.39,7.82,15.89,15.89,0,0,0,4.5,11a16.61,16.61,0,0,0-1.14,3.58A18.9,18.9,0,0,0,3,18.32,16.94,16.94,0,0,0,3.62,23a10.63,10.63,0,0,0,2,3.86A9.39,9.39,0,0,0,9,29.48a11.85,11.85,0,0,0,5,1,19.66,19.66,0,0,0,5.23-.66,10.79,10.79,0,0,0,4-2L24,29.86a14.08,14.08,0,0,1-4.72,2.26,23,23,0,0,1-6.15.77,13.75,13.75,0,0,1-5.71-1.11,11.59,11.59,0,0,1-4.1-3.07A13.06,13.06,0,0,1,.84,24.15,18.42,18.42,0,0,1,0,18.5a20.38,20.38,0,0,1,.53-4.64A19.58,19.58,0,0,1,2,9.6,17.38,17.38,0,0,1,4.47,5.94,15.88,15.88,0,0,1,7.73,3.07a15.73,15.73,0,0,1,4-1.87A16.25,16.25,0,0,1,16.46.54a15.45,15.45,0,0,1,4.94.71,10.45,10.45,0,0,1,3.84,2.32Z"/><path class="cls-1" d="M35.58,0,34.44,14.67A10.27,10.27,0,0,1,38.14,11,10,10,0,0,1,43,9.82a7.9,7.9,0,0,1,3.53.68,5.55,5.55,0,0,1,2.18,1.79,6.71,6.71,0,0,1,1.1,2.53,14.06,14.06,0,0,1,.3,2.9l0,1L49,32.4h-2.6L47.36,21c0-.5.08-1,.11-1.47s.06-.76.06-.83a7.69,7.69,0,0,0-1.31-5A5.28,5.28,0,0,0,41.83,12a7.88,7.88,0,0,0-3.16.6,6.92,6.92,0,0,0-2.37,1.65,8.16,8.16,0,0,0-1.56,2.48,10.34,10.34,0,0,0-.7,3.07L33,32.4h-2.6L33,0Z"/><path class="cls-1" d="M60.38,32.63h-3.7L57,28.79H60.7Z"/><path class="cls-1" d="M82.3,32.4,84.86,1.12h5.82l2.8,0a26.62,26.62,0,0,1,3,.23,16,16,0,0,1,2.82.6,7.61,7.61,0,0,1,2.39,1.17,5.58,5.58,0,0,1,1.64,1.93A6.18,6.18,0,0,1,103.91,8a7,7,0,0,1-.6,2.91,7.85,7.85,0,0,1-1.64,2.38A10.15,10.15,0,0,1,99.23,15a11.26,11.26,0,0,1-3,1,10.63,10.63,0,0,1,3.26.58A7.09,7.09,0,0,1,102,18a6.3,6.3,0,0,1,1.62,2.25,7.68,7.68,0,0,1,.57,3,8.86,8.86,0,0,1-.7,3.45,8.4,8.4,0,0,1-2.08,2.9,10.1,10.1,0,0,1-3.39,2,13.44,13.44,0,0,1-4.68.75Zm4-15L85.22,30h6.86a17.16,17.16,0,0,0,3.91-.4,8.42,8.42,0,0,0,2.9-1.21,5.48,5.48,0,0,0,1.8-2.06,6.54,6.54,0,0,0,.62-3,5.82,5.82,0,0,0-.63-2.84,4.72,4.72,0,0,0-1.86-1.82,8.94,8.94,0,0,0-3-1,26.27,26.27,0,0,0-4.11-.29Zm.18-2.45h4.85a21.83,21.83,0,0,0,3.53-.28,10.07,10.07,0,0,0,3.1-1,6.08,6.08,0,0,0,2.21-1.93A5.31,5.31,0,0,0,101,8.63a4.68,4.68,0,0,0-.65-2.6A4.42,4.42,0,0,0,98.5,4.5a8.79,8.79,0,0,0-2.72-.74,27.19,27.19,0,0,0-3.36-.19h-5Z"/><path class="cls-1" d="M121.26,9.82a10.55,10.55,0,0,1,2.76.33,8,8,0,0,1,2.19.95A7.73,7.73,0,0,1,128,12.59a14.33,14.33,0,0,1,1.46,2l.43-4.23h2.64L132,15.6l-1.35,16.8H128l.41-4.71a6.24,6.24,0,0,1-1.18,1.8,9.4,9.4,0,0,1-2,1.67,11.32,11.32,0,0,1-2.67,1.25,10.2,10.2,0,0,1-3.16.48,9.24,9.24,0,0,1-4.34-.95,8.67,8.67,0,0,1-2.95-2.5A10.25,10.25,0,0,1,110.43,26a14.34,14.34,0,0,1-.22-6.91,13.39,13.39,0,0,1,1-2.86,12.52,12.52,0,0,1,1.59-2.53,10.27,10.27,0,0,1,5-3.36A11.67,11.67,0,0,1,121.26,9.82ZM129,21.12a17.07,17.07,0,0,0-.33-3.38,8.16,8.16,0,0,0-1.19-2.94,6.24,6.24,0,0,0-2.36-2.06,9.49,9.49,0,0,0-7.82.15,8.42,8.42,0,0,0-2.76,2.39,10.36,10.36,0,0,0-1.59,3.25,12.85,12.85,0,0,0-.51,3.51,15.78,15.78,0,0,0,.33,3.25A7.59,7.59,0,0,0,114,28.08a6.19,6.19,0,0,0,2.33,2,8.34,8.34,0,0,0,3.73.74,9.77,9.77,0,0,0,3.27-.56,8,8,0,0,0,2.79-1.7,8.73,8.73,0,0,0,2-2.86,11.43,11.43,0,0,0,.9-4Z"/><path class="cls-1" d="M155.23,10.36h2.58l-1.36,17c0,.45-.14,2.15-.3,5.09h-2.66l.32-4.36a8.83,8.83,0,0,1-3.5,3.69,10.24,10.24,0,0,1-5,1.16,8.18,8.18,0,0,1-3.63-.7,5.71,5.71,0,0,1-2.22-1.84,6.9,6.9,0,0,1-1.11-2.59,14.33,14.33,0,0,1-.3-2.92v-.48c0-.15,0-.31,0-.47l1.14-13.53h2.6L140.62,23.7q0,.36,0,.6c0,.16,0,.34,0,.54A6.33,6.33,0,0,0,142,29.27a5.77,5.77,0,0,0,4.43,1.52,8.21,8.21,0,0,0,3.17-.59A7.38,7.38,0,0,0,152,28.57a7.29,7.29,0,0,0,1.58-2.43,9.48,9.48,0,0,0,.66-3Z"/><path class="cls-1" d="M183.08,0h2.6l-2.17,27.09c-.08.93-.13,1.82-.17,2.66s-.06,1.72-.09,2.65H180.6l.22-4.43A10.48,10.48,0,0,1,177,31.72a10.27,10.27,0,0,1-4.92,1.17,9.4,9.4,0,0,1-4-.78A7.4,7.4,0,0,1,165.3,30a9.08,9.08,0,0,1-1.61-3.23,14.44,14.44,0,0,1-.53-4,16.78,16.78,0,0,1,.71-4.87,12.51,12.51,0,0,1,2.09-4.1,10.51,10.51,0,0,1,3.43-2.84,10,10,0,0,1,4.71-1.06A9.22,9.22,0,0,1,178.93,11a7.33,7.33,0,0,1,3,3.72ZM172.83,30.79a8.23,8.23,0,0,0,7.74-5.09,8.72,8.72,0,0,0,.68-2.84L181.4,21c.11-1.42.17-2.15.17-2.19a7,7,0,0,0-.48-2.56A6.35,6.35,0,0,0,179.68,14a6.84,6.84,0,0,0-2.23-1.5,7.45,7.45,0,0,0-3-.56,7.9,7.9,0,0,0-3.82.87A7.69,7.69,0,0,0,168,15.18a10.31,10.31,0,0,0-1.54,3.39,15.73,15.73,0,0,0-.51,4,12.7,12.7,0,0,0,.37,3.12,7.24,7.24,0,0,0,1.18,2.61,5.79,5.79,0,0,0,2.12,1.79A7,7,0,0,0,172.83,30.79Z"/><path class="cls-1" d="M208.6,28.06l.6,2.06a10.74,10.74,0,0,1-3.92,2.12,17.26,17.26,0,0,1-4.86.65,11.11,11.11,0,0,1-4.25-.76A8.64,8.64,0,0,1,193.05,30a8.87,8.87,0,0,1-1.92-3.3,12.92,12.92,0,0,1-.66-4.22,14.27,14.27,0,0,1,.82-4.87,12.11,12.11,0,0,1,2.33-4,10.88,10.88,0,0,1,3.67-2.74,11.3,11.3,0,0,1,4.82-1,9.74,9.74,0,0,1,3.95.73,7.28,7.28,0,0,1,2.75,2.06,8.82,8.82,0,0,1,1.61,3.21,15.58,15.58,0,0,1,.52,4.18c0,.42,0,.78,0,1.08a7.56,7.56,0,0,1-.06.77H193.31c0,.13,0,.26-.05.41s0,.25,0,.42,0,.33,0,.5a8.58,8.58,0,0,0,.54,3.12,6.68,6.68,0,0,0,1.53,2.39,6.94,6.94,0,0,0,2.41,1.55,8.78,8.78,0,0,0,3.17.55,12.88,12.88,0,0,0,4.37-.71A9.61,9.61,0,0,0,208.6,28.06Zm-15.1-8.4h14.76v.11a16.75,16.75,0,0,0-.39-3.16,6.6,6.6,0,0,0-1.05-2.47,4.88,4.88,0,0,0-1.93-1.6,7.12,7.12,0,0,0-3-.57,8,8,0,0,0-3.21.61,7.81,7.81,0,0,0-2.49,1.66,9.08,9.08,0,0,0-1.72,2.45A11.83,11.83,0,0,0,193.5,19.66Z"/><path class="cls-1" d="M221.43,0l-2.55,32.4h-2.6L218.88,0Z"/><path class="cls-1" d="M237.66,9.82a10.55,10.55,0,0,1,2.76.33,8,8,0,0,1,2.19.95,7.52,7.52,0,0,1,1.75,1.49,14.33,14.33,0,0,1,1.46,2l.43-4.23h2.65l-.48,5.24-1.35,16.8h-2.64l.4-4.71a6.24,6.24,0,0,1-1.18,1.8,9.4,9.4,0,0,1-2,1.67A11.32,11.32,0,0,1,239,32.41a10.2,10.2,0,0,1-3.16.48,9.24,9.24,0,0,1-4.34-.95,8.67,8.67,0,0,1-2.95-2.5A10.25,10.25,0,0,1,226.83,26a14.54,14.54,0,0,1-.54-3.92,13.77,13.77,0,0,1,.33-3,12.83,12.83,0,0,1,1-2.86,12.52,12.52,0,0,1,1.59-2.53,10.4,10.4,0,0,1,5.05-3.36A11.72,11.72,0,0,1,237.66,9.82Zm7.73,11.3a17.07,17.07,0,0,0-.33-3.38,8.16,8.16,0,0,0-1.19-2.94,6.29,6.29,0,0,0-2.35-2.06,9.51,9.51,0,0,0-7.83.15,8.42,8.42,0,0,0-2.76,2.39,10.36,10.36,0,0,0-1.59,3.25,12.85,12.85,0,0,0-.51,3.51,15.78,15.78,0,0,0,.33,3.25,7.59,7.59,0,0,0,1.19,2.79,6.22,6.22,0,0,0,2.34,2,8.29,8.29,0,0,0,3.72.74,9.77,9.77,0,0,0,3.27-.56,8,8,0,0,0,2.79-1.7,8.73,8.73,0,0,0,2-2.86,11.21,11.21,0,0,0,.9-4Z"/><path class="cls-1" d="M256,10.36h2.6l-1.79,22h-2.6Zm3.3-9.72L259,3.29h-2.45l.28-2.65Z"/><path class="cls-1" d="M267.66,32.4h-2.6l1.4-16.93c0-.46.12-2.16.27-5.11h2.65l-.2,5.32A10.26,10.26,0,0,1,270.3,13a7.25,7.25,0,0,1,1.58-1.82,5.92,5.92,0,0,1,2-1,7.75,7.75,0,0,1,2.3-.33l1.08,0A3.23,3.23,0,0,1,278,10l-.15,2.45a2.92,2.92,0,0,0-.7-.16,9.09,9.09,0,0,0-1.32-.08,6.26,6.26,0,0,0-2.63.55A6.34,6.34,0,0,0,271,14.31a8.35,8.35,0,0,0-1.52,2.49,10.89,10.89,0,0,0-.75,3.27Z"/><path class="cls-1" d="M298.28,28.06l.6,2.06A10.82,10.82,0,0,1,295,32.24a17.28,17.28,0,0,1-4.87.65,11.06,11.06,0,0,1-4.24-.76A8.68,8.68,0,0,1,282.72,30a9.15,9.15,0,0,1-1.92-3.3,12.93,12.93,0,0,1-.65-4.22A14.51,14.51,0,0,1,281,17.6a12.28,12.28,0,0,1,2.33-4A10.92,10.92,0,0,1,287,10.83a11.27,11.27,0,0,1,4.82-1,9.69,9.69,0,0,1,3.94.73,7.21,7.21,0,0,1,2.75,2.06,8.82,8.82,0,0,1,1.61,3.21,15.57,15.57,0,0,1,.53,4.18c0,.42,0,.78,0,1.08s0,.55-.07.77H283c0,.13,0,.26,0,.41a2.42,2.42,0,0,0,0,.42c0,.16,0,.33,0,.5a8.58,8.58,0,0,0,.53,3.12A6.7,6.7,0,0,0,285,28.69a6.9,6.9,0,0,0,2.4,1.55,8.82,8.82,0,0,0,3.17.55,12.94,12.94,0,0,0,4.38-.71A9.61,9.61,0,0,0,298.28,28.06Zm-15.11-8.4h14.76v.11a17.64,17.64,0,0,0-.38-3.16,6.77,6.77,0,0,0-1.06-2.47,4.81,4.81,0,0,0-1.93-1.6,7.06,7.06,0,0,0-3-.57,8,8,0,0,0-3.21.61,7.88,7.88,0,0,0-2.48,1.66,8.87,8.87,0,0,0-1.72,2.45A11.85,11.85,0,0,0,283.17,19.66Z"/><path class="cls-1" d="M306.66,28.62h3l-4.06,9.47h-2Z"/><path class="cls-1" d="M332.06,10.36V.88H335l-1.06,9.48Zm6.41,0V.88h3l-1,9.48Z"/><path class="cls-1" d="M365.2,32.4H347.09l2.55-31.28h2.71L350.05,30h15.36Z"/><path class="cls-1" d="M373.34,10.36V.88h3l-1,9.48Z"/><path class="cls-1" d="M400.44,28.06l.6,2.06a10.74,10.74,0,0,1-3.92,2.12,17.28,17.28,0,0,1-4.87.65,11.06,11.06,0,0,1-4.24-.76A8.56,8.56,0,0,1,384.89,30a9,9,0,0,1-1.93-3.3,12.93,12.93,0,0,1-.65-4.22,14.51,14.51,0,0,1,.81-4.87,12.28,12.28,0,0,1,2.33-4,10.92,10.92,0,0,1,3.68-2.74,11.3,11.3,0,0,1,4.82-1,9.69,9.69,0,0,1,3.94.73,7.21,7.21,0,0,1,2.75,2.06,8.83,8.83,0,0,1,1.62,3.21,15.58,15.58,0,0,1,.52,4.18c0,.42,0,.78,0,1.08s0,.55-.06.77H385.14c0,.13,0,.26,0,.41a4.1,4.1,0,0,0,0,.42c0,.16,0,.33,0,.5a8.8,8.8,0,0,0,.53,3.12,6.7,6.7,0,0,0,1.54,2.39,6.94,6.94,0,0,0,2.41,1.55,8.74,8.74,0,0,0,3.17.55,12.88,12.88,0,0,0,4.37-.71A9.61,9.61,0,0,0,400.44,28.06Zm-15.1-8.4H400.1v.11a18.57,18.57,0,0,0-.39-3.16,6.94,6.94,0,0,0-1-2.47,4.91,4.91,0,0,0-1.94-1.6,7.06,7.06,0,0,0-3-.57,8,8,0,0,0-3.21.61A7.88,7.88,0,0,0,388,14.24a9.08,9.08,0,0,0-1.72,2.45A11.44,11.44,0,0,0,385.34,19.66ZM394.64,0h3.42l-6.62,6.27h-1.72Z"/><path class="cls-1" d="M411.4,12.12h-4.49l.15-1.76h4.45l.64-6.19,2.54-.73-.63,6.92h5.76l-.15,1.76H414l-1.1,13.77a20.21,20.21,0,0,0-.08,2.23,3.69,3.69,0,0,0,.32,1.56,1.84,1.84,0,0,0,1,.9,4.72,4.72,0,0,0,1.87.29,5.71,5.71,0,0,0,2.41-.41l-.15,1.83a3.22,3.22,0,0,1-1.14.46,6.52,6.52,0,0,1-1.46.14,8.8,8.8,0,0,1-2.8-.38,3.73,3.73,0,0,1-1.72-1.16,4.09,4.09,0,0,1-.8-2,12,12,0,0,1,0-2.79Z"/><path class="cls-1" d="M426.47,32.4h-2.6l1.39-16.93c0-.46.12-2.16.28-5.11h2.64L428,15.68A10.26,10.26,0,0,1,429.11,13a7.06,7.06,0,0,1,1.58-1.82,6,6,0,0,1,2-1,7.85,7.85,0,0,1,2.3-.33l1.09,0a3.32,3.32,0,0,1,.74.11l-.15,2.45a2.92,2.92,0,0,0-.7-.16,9.3,9.3,0,0,0-1.32-.08,6.2,6.2,0,0,0-2.63.55,6.34,6.34,0,0,0-2.15,1.58,8.37,8.37,0,0,0-1.53,2.49,11.2,11.2,0,0,0-.74,3.27Z"/><path class="cls-1" d="M450.36,9.82a10.55,10.55,0,0,1,2.76.33,8,8,0,0,1,2.19.95,7.52,7.52,0,0,1,1.75,1.49,14.33,14.33,0,0,1,1.46,2l.43-4.23h2.65l-.48,5.24-1.35,16.8h-2.64l.41-4.71a6.51,6.51,0,0,1-1.19,1.8,9.58,9.58,0,0,1-2,1.67,11.59,11.59,0,0,1-2.68,1.25,10.2,10.2,0,0,1-3.16.48,9.27,9.27,0,0,1-4.34-.95,8.67,8.67,0,0,1-2.95-2.5A10.25,10.25,0,0,1,439.53,26,14.54,14.54,0,0,1,439,22a13.77,13.77,0,0,1,.33-3,12.83,12.83,0,0,1,1-2.86,12.52,12.52,0,0,1,1.59-2.53,10.4,10.4,0,0,1,5.05-3.36A11.72,11.72,0,0,1,450.36,9.82Zm7.73,11.3a17.07,17.07,0,0,0-.33-3.38,8.16,8.16,0,0,0-1.19-2.94,6.21,6.21,0,0,0-2.35-2.06A8.24,8.24,0,0,0,450.4,12a8,8,0,0,0-6.76,3.31,10,10,0,0,0-1.59,3.25,12.49,12.49,0,0,0-.52,3.51,15.78,15.78,0,0,0,.33,3.25,7.44,7.44,0,0,0,1.2,2.79,6.11,6.11,0,0,0,2.33,2,8.29,8.29,0,0,0,3.72.74,9.77,9.77,0,0,0,3.27-.56,7.94,7.94,0,0,0,2.79-1.7,8.73,8.73,0,0,0,2-2.86,11,11,0,0,0,.9-4Z"/><path class="cls-1" d="M469.34,32.4h-2.6l1.39-16.93c0-.46.06-1,.1-1.57s.07-1.15.1-1.68.05-1.23.08-1.86h2.64l-.21,4.31A10.28,10.28,0,0,1,474.48,11a9.85,9.85,0,0,1,4.91-1.22,7.76,7.76,0,0,1,3.53.7,5.79,5.79,0,0,1,2.2,1.84,7.05,7.05,0,0,1,1.1,2.59,14.35,14.35,0,0,1,.3,2.93s0,.29,0,.76-.19,2.67-.54,6.6l-.55,7.16h-2.56l.54-6.79c.2-2.55.33-4.17.38-4.87s.1-1.28.13-1.76,0-.78,0-.91a6.55,6.55,0,0,0-1.4-4.56,5.17,5.17,0,0,0-4-1.54,7.79,7.79,0,0,0-2.25.31,8.42,8.42,0,0,0-1.91.83,7.55,7.55,0,0,0-1.53,1.17,8.41,8.41,0,0,0-1.15,1.35,7,7,0,0,0-.76,1.36,4.23,4.23,0,0,0-.31,1.21Z"/><path class="cls-1" d="M511.45,10.36h2.66l-.49,5.24-1.1,13.9c-.08,1-.21,2-.38,3a15.12,15.12,0,0,1-.8,2.86,10.89,10.89,0,0,1-1.4,2.55,8.21,8.21,0,0,1-2.18,2,10.76,10.76,0,0,1-3.16,1.36,16.87,16.87,0,0,1-4.32.5,19,19,0,0,1-4-.4,12.87,12.87,0,0,1-3.44-1.23l.46-2.5A11.38,11.38,0,0,0,496.58,39a15.45,15.45,0,0,0,3.68.44,10.42,10.42,0,0,0,6.58-1.88,8.14,8.14,0,0,0,2.8-5.9l.48-4.68a9.84,9.84,0,0,1-3.75,4,10.12,10.12,0,0,1-5.1,1.34,9.86,9.86,0,0,1-3.85-.71,7.79,7.79,0,0,1-2.83-2,8.83,8.83,0,0,1-1.75-3.09,12.67,12.67,0,0,1-.6-4,16.78,16.78,0,0,1,.71-4.9,12,12,0,0,1,2.12-4.07,10.11,10.11,0,0,1,3.48-2.78,10.66,10.66,0,0,1,4.82-1,8.79,8.79,0,0,1,2.53.35,8.44,8.44,0,0,1,2.1,1,7.76,7.76,0,0,1,1.71,1.53,10.63,10.63,0,0,1,1.31,2Zm-.84,9a8.31,8.31,0,0,0-.46-2.75,6.92,6.92,0,0,0-1.37-2.35,6.69,6.69,0,0,0-2.2-1.63,6.85,6.85,0,0,0-3-.61,7.67,7.67,0,0,0-3.67.85,8.13,8.13,0,0,0-2.68,2.26,10.27,10.27,0,0,0-1.65,3.27,13.26,13.26,0,0,0-.55,3.84,13.94,13.94,0,0,0,.37,3.4,6.17,6.17,0,0,0,1.23,2.5,5.27,5.27,0,0,0,2.2,1.55,9.12,9.12,0,0,0,3.29.52,7.85,7.85,0,0,0,4-.93,7.51,7.51,0,0,0,2.61-2.46,10.33,10.33,0,0,0,1.43-3.47A18.27,18.27,0,0,0,510.61,19.31Z"/><path class="cls-1" d="M537.73,28.06l.6,2.06a10.82,10.82,0,0,1-3.92,2.12,17.28,17.28,0,0,1-4.87.65,11.06,11.06,0,0,1-4.24-.76A8.68,8.68,0,0,1,522.17,30a9.15,9.15,0,0,1-1.92-3.3,12.93,12.93,0,0,1-.65-4.22,14.51,14.51,0,0,1,.81-4.87,12.28,12.28,0,0,1,2.33-4,10.92,10.92,0,0,1,3.68-2.74,11.27,11.27,0,0,1,4.82-1,9.69,9.69,0,0,1,3.94.73,7.21,7.21,0,0,1,2.75,2.06,8.82,8.82,0,0,1,1.61,3.21,15.57,15.57,0,0,1,.53,4.18c0,.42,0,.78,0,1.08s0,.55-.07.77H522.43c0,.13,0,.26,0,.41a2.42,2.42,0,0,0,0,.42c0,.16,0,.33,0,.5a8.58,8.58,0,0,0,.53,3.12,6.7,6.7,0,0,0,1.54,2.39,6.9,6.9,0,0,0,2.4,1.55,8.82,8.82,0,0,0,3.17.55,12.9,12.9,0,0,0,4.38-.71A9.61,9.61,0,0,0,537.73,28.06Zm-15.11-8.4h14.76v.11a17.64,17.64,0,0,0-.38-3.16,6.77,6.77,0,0,0-1.06-2.47,4.81,4.81,0,0,0-1.93-1.6,7.06,7.06,0,0,0-3-.57,8,8,0,0,0-3.21.61,7.88,7.88,0,0,0-2.48,1.66,8.87,8.87,0,0,0-1.72,2.45A11.85,11.85,0,0,0,522.62,19.66Z"/><path class="cls-1" d="M547.92,32.4h-2.6l1.39-16.93c0-.46.12-2.16.28-5.11h2.64l-.19,5.32A10.26,10.26,0,0,1,550.56,13a7.06,7.06,0,0,1,1.58-1.82,6,6,0,0,1,2-1,7.85,7.85,0,0,1,2.3-.33l1.09,0a3.32,3.32,0,0,1,.74.11l-.15,2.45a2.92,2.92,0,0,0-.7-.16,9.3,9.3,0,0,0-1.32-.08,6.2,6.2,0,0,0-2.63.55,6.34,6.34,0,0,0-2.15,1.58,8.37,8.37,0,0,0-1.53,2.49,11.2,11.2,0,0,0-.74,3.27Z"/><path class="cls-1" d="M562.7,10.36V.88h2.92l-1,9.48Zm6.4,0V.88h3l-1,9.48Z"/></g></g></svg>