<svg xmlns="http://www.w3.org/2000/svg" viewBox="0 0 1127.56 207.75"><defs><style>.cls-1{fill:#fff;}</style></defs><title>Fichier 3citation</title><g id="Calque_2" data-name="Calque 2"><g id="Calque_1-2" data-name="Calque 1"><path class="cls-1" d="M18.47,28.41H2.31V.69H17.93V3.5H5.41v9.3H17.24v2.82H5.41v10H18.47Z"/><path class="cls-1" d="M26.57,0V11.46a6.87,6.87,0,0,1,2.65-2.34,8.23,8.23,0,0,1,3.56-.72,7.09,7.09,0,0,1,3.33.69,5.73,5.73,0,0,1,2.07,1.82,7,7,0,0,1,1.06,2.53,13.75,13.75,0,0,1,.3,2.86V28.41h-3V16.49a10.42,10.42,0,0,0-.23-2.24,4.57,4.57,0,0,0-.76-1.75,3.43,3.43,0,0,0-1.42-1.14A5.3,5.3,0,0,0,32,11a4.86,4.86,0,0,0-4,1.88,6.51,6.51,0,0,0-1,2,7.82,7.82,0,0,0-.37,2.43V28.41h-3V0Z"/><path class="cls-1" d="M57.94,24.93h3.85v3.92H57.94Zm3-3.62H58.86L58.14.78h3.51Z"/><path class="cls-1" d="M93.76,25.59a7.33,7.33,0,0,1-2.87,2.47,8.73,8.73,0,0,1-3.76.79,7.69,7.69,0,0,1-3.54-.78,7.4,7.4,0,0,1-2.54-2.14,9.42,9.42,0,0,1-1.54-3.2A14.34,14.34,0,0,1,79,18.78a14.17,14.17,0,0,1,.54-4,10.11,10.11,0,0,1,1.61-3.31A7.69,7.69,0,0,1,83.8,9.25a7.81,7.81,0,0,1,3.73-.85,8.24,8.24,0,0,1,3.61.76,7,7,0,0,1,2.62,2.15l.09-2.44h3c0,.74-.08,1.48-.1,2.21s0,1.36,0,1.85V36.52h-3Zm0-7.52a10,10,0,0,0-.39-2.87,6.74,6.74,0,0,0-1.12-2.26,5,5,0,0,0-1.81-1.47A5.54,5.54,0,0,0,88,11a5.19,5.19,0,0,0-4.48,2.29,7.82,7.82,0,0,0-1.07,2.49,12.84,12.84,0,0,0-.35,3,13,13,0,0,0,.32,2.9,7.67,7.67,0,0,0,1,2.42,5.18,5.18,0,0,0,1.77,1.65,5.29,5.29,0,0,0,2.6.61,5.35,5.35,0,0,0,2.88-.72,5.52,5.52,0,0,0,1.84-1.88,8.29,8.29,0,0,0,1-2.65A15.86,15.86,0,0,0,93.76,18.07Z"/><path class="cls-1" d="M115.46,8.87h3V23.73q0,1.26,0,2.37c0,.74.05,1.51.11,2.31h-3.06l-.05-2.57a6.93,6.93,0,0,1-6.09,3,8,8,0,0,1-2.41-.33,6.27,6.27,0,0,1-1.81-.91,5.29,5.29,0,0,1-1.28-1.35,7.7,7.7,0,0,1-.82-1.68,10.19,10.19,0,0,1-.44-1.85,13.76,13.76,0,0,1-.13-1.92V8.87h3V20.81a6.44,6.44,0,0,0,1.09,4.13,4.25,4.25,0,0,0,3.52,1.4,5,5,0,0,0,4-1.85,6.11,6.11,0,0,0,1-2,7.86,7.86,0,0,0,.36-2.39Z"/><path class="cls-1" d="M124.19,9.58l-.65-8.8h3.32l-.33,8.8Z"/><path class="cls-1" d="M140.83,8.4a8.82,8.82,0,0,1,2.07.22,7.24,7.24,0,0,1,1.73.62,6.27,6.27,0,0,1,1.46,1,9.29,9.29,0,0,1,1.24,1.33l.11-2.69h2.94l-.08,4.82V28.41h-3l0-2.74a7,7,0,0,1-1.09,1.19,7.26,7.26,0,0,1-1.49,1,8.39,8.39,0,0,1-1.82.7,8.06,8.06,0,0,1-2.1.27,8.59,8.59,0,0,1-2.81-.43,7.78,7.78,0,0,1-2.25-1.18,8.2,8.2,0,0,1-1.72-1.76,10,10,0,0,1-1.2-2.17,12.56,12.56,0,0,1-.7-2.41,12.72,12.72,0,0,1,.31-6.16,9.75,9.75,0,0,1,1.66-3.22,8.1,8.1,0,0,1,6.67-3.12Zm.34,17.94a5.22,5.22,0,0,0,2.37-.55,5.58,5.58,0,0,0,2-1.6,8.06,8.06,0,0,0,1.33-2.62,12.42,12.42,0,0,0,.51-3.63,8.43,8.43,0,0,0-.44-2.82,6.55,6.55,0,0,0-1.25-2.21,5.7,5.7,0,0,0-2-1.45,6.42,6.42,0,0,0-2.6-.51,5.8,5.8,0,0,0-2,.31,5.33,5.33,0,0,0-1.57.87,5.91,5.91,0,0,0-1.19,1.3A7.5,7.5,0,0,0,135.5,15a10.14,10.14,0,0,0-.48,1.76,11.14,11.14,0,0,0-.15,1.81,14.07,14.07,0,0,0,.12,1.8,10.65,10.65,0,0,0,.39,1.78,7.1,7.1,0,0,0,.73,1.61,5.31,5.31,0,0,0,1.17,1.33,5.42,5.42,0,0,0,1.65.89A6.64,6.64,0,0,0,141.17,26.34Z"/><path class="cls-1" d="M155.76,8.87h3V28.41h-3Zm2.9-8.3v3h-2.75V.57Z"/><path class="cls-1" d="M167.75,8.87l.08,2.63a6.87,6.87,0,0,1,2.56-2.35,7.43,7.43,0,0,1,3.4-.75,7,7,0,0,1,2,.27,6.7,6.7,0,0,1,1.69.78,5.68,5.68,0,0,1,1.34,1.2,6,6,0,0,1,.92,1.59,6.91,6.91,0,0,1,2.69-2.92,8.12,8.12,0,0,1,4-.92,6.89,6.89,0,0,1,3.24.67,5.59,5.59,0,0,1,2,1.78,7,7,0,0,1,1,2.53,14,14,0,0,1,.3,2.92V28.41h-3V17.79a22,22,0,0,0-.14-2.44,6.85,6.85,0,0,0-.59-2.2A4,4,0,0,0,188,11.56a4.25,4.25,0,0,0-2.43-.61,4.33,4.33,0,0,0-2.15.52,5.14,5.14,0,0,0-1.61,1.4,6.76,6.76,0,0,0-1,2,8.4,8.4,0,0,0-.34,2.35V28.41h-3V16.32a8.31,8.31,0,0,0-.25-2.09,4.86,4.86,0,0,0-.8-1.7A3.92,3.92,0,0,0,175,11.38,4.58,4.58,0,0,0,172.9,11a4.66,4.66,0,0,0-2.17.5,4.76,4.76,0,0,0-1.59,1.37,6,6,0,0,0-1,2,8.61,8.61,0,0,0-.33,2.41V28.41h-3V13.92q0-1.26,0-2.55c0-.86-.05-1.7-.08-2.5Z"/><path class="cls-1" d="M214.76,26.22a9.43,9.43,0,0,1-3.32,2,12.55,12.55,0,0,1-4.12.63,9.61,9.61,0,0,1-3.89-.75,8,8,0,0,1-2.89-2.1,9,9,0,0,1-1.8-3.21,12.67,12.67,0,0,1-.62-4.09,12.61,12.61,0,0,1,.61-4,10,10,0,0,1,1.78-3.28,8.46,8.46,0,0,1,2.86-2.22,9.54,9.54,0,0,1,7.53-.09,7,7,0,0,1,2.58,2,8.75,8.75,0,0,1,1.5,3.06,14.21,14.21,0,0,1,.5,3.84c0,.14,0,.3,0,.49s0,.35,0,.5H201.29l.05.86a9.23,9.23,0,0,0,.55,2.61,6.27,6.27,0,0,0,1.21,2A5.25,5.25,0,0,0,205,25.87a6.48,6.48,0,0,0,2.53.47,8.5,8.5,0,0,0,3.49-.71,9,9,0,0,0,2.84-2Zm-2.4-9.41,0-.26a8.39,8.39,0,0,0-.46-2.27,5.49,5.49,0,0,0-1-1.77,4.45,4.45,0,0,0-1.58-1.15A5.13,5.13,0,0,0,207.2,11a5.31,5.31,0,0,0-2.26.47,5.37,5.37,0,0,0-1.74,1.26A6.53,6.53,0,0,0,202,14.55a9,9,0,0,0-.61,2.26Z"/><path class="cls-1" d="M231.41,12.28a6.4,6.4,0,0,0-2.34-1,12.64,12.64,0,0,0-2.85-.31,5.73,5.73,0,0,0-1.53.19,4.19,4.19,0,0,0-1.21.54,2.76,2.76,0,0,0-.81.86,2.17,2.17,0,0,0-.3,1.13,2,2,0,0,0,.31,1.15,2.82,2.82,0,0,0,.83.82,5.57,5.57,0,0,0,1.22.63c.47.19,1,.36,1.49.53l1.54.47c.54.17,1.09.36,1.62.58a13.21,13.21,0,0,1,1.55.78,5.85,5.85,0,0,1,1.3,1.06,4.57,4.57,0,0,1,.9,1.43,5.41,5.41,0,0,1-.31,4.46,5.72,5.72,0,0,1-1.71,1.82,7.68,7.68,0,0,1-2.43,1.09,11,11,0,0,1-2.81.36,16.83,16.83,0,0,1-1.89-.11,10.26,10.26,0,0,1-1.8-.39,7.24,7.24,0,0,1-1.58-.68,4.54,4.54,0,0,1-1.25-1.05l.8-2.57a4.9,4.9,0,0,0,1.13,1.05,6.35,6.35,0,0,0,1.4.71,7.42,7.42,0,0,0,1.54.4,9.26,9.26,0,0,0,1.55.13,8.35,8.35,0,0,0,1.86-.2,5.14,5.14,0,0,0,1.47-.59,3,3,0,0,0,1-1,2.52,2.52,0,0,0,.35-1.35,2.41,2.41,0,0,0-.39-1.42,3.51,3.51,0,0,0-1.1-.93,8.27,8.27,0,0,0-1.68-.68l-2.11-.68c-.9-.31-1.72-.63-2.45-1a8.14,8.14,0,0,1-1.85-1.17,4.75,4.75,0,0,1-1.16-1.56,5,5,0,0,1-.4-2.1,4.61,4.61,0,0,1,.58-2.36A5.24,5.24,0,0,1,221.4,9.7a7,7,0,0,1,2.17-1,9.93,9.93,0,0,1,2.48-.32,14.87,14.87,0,0,1,3.44.37,6.52,6.52,0,0,1,2.67,1.28Z"/><path class="cls-1" d="M236.74,19.1V16.49H247l0,2.61Z"/><path class="cls-1" d="M252.79,10.91h-3.66v-2h3.66l.09-5.18,2.88-.89V8.87h4.61v2h-4.61V22.58c0,.44,0,.88,0,1.33a4.08,4.08,0,0,0,.24,1.24,2.07,2.07,0,0,0,.64.91,1.85,1.85,0,0,0,1.22.35,4.74,4.74,0,0,0,1.21-.16c.42-.11.88-.26,1.39-.45l0,2.35a4.67,4.67,0,0,1-1.37.54,7.73,7.73,0,0,1-1.68.16,4.74,4.74,0,0,1-2.42-.54,3.78,3.78,0,0,1-1.4-1.46,6.19,6.19,0,0,1-.66-2.13,19.17,19.17,0,0,1-.16-2.57Z"/><path class="cls-1" d="M277.35,8.87h3V23.73q0,1.26,0,2.37t.12,2.31h-3.06l-.06-2.57a6.93,6.93,0,0,1-6.09,3,8,8,0,0,1-2.41-.33,6.27,6.27,0,0,1-1.81-.91,5.29,5.29,0,0,1-1.28-1.35,7.7,7.7,0,0,1-.82-1.68,10.19,10.19,0,0,1-.44-1.85,13.76,13.76,0,0,1-.13-1.92V8.87h3V20.81a6.44,6.44,0,0,0,1.1,4.13,4.22,4.22,0,0,0,3.51,1.4,5.08,5.08,0,0,0,2.29-.5,5,5,0,0,0,1.7-1.35,6.11,6.11,0,0,0,1.05-2,7.86,7.86,0,0,0,.36-2.39Z"/><path class="cls-1" d="M310.72,28.41l-.07-2.8a7,7,0,0,1-2.71,2.5,8.46,8.46,0,0,1-3.67.74,8.16,8.16,0,0,1-3.72-.79A7.39,7.39,0,0,1,298,25.9a9.65,9.65,0,0,1-1.53-3.21,15,15,0,0,1-.5-3.91,14.2,14.2,0,0,1,.53-3.94,10.08,10.08,0,0,1,1.6-3.31,7.83,7.83,0,0,1,2.67-2.28,7.68,7.68,0,0,1,3.7-.85,7.8,7.8,0,0,1,3.59.8,7,7,0,0,1,2.64,2.3V0h3V23.54c0,.76,0,1.58,0,2.45s0,1.69.07,2.42Zm-6-2.07a5.1,5.1,0,0,0,4.43-2.3,8.16,8.16,0,0,0,1.13-2.64,14.44,14.44,0,0,0,.38-3.42,9.59,9.59,0,0,0-.41-2.88,6.69,6.69,0,0,0-1.16-2.22,5.42,5.42,0,0,0-1.83-1.43,5.54,5.54,0,0,0-2.38-.5,5.26,5.26,0,0,0-2.64.63,5.38,5.38,0,0,0-1.83,1.69,7.59,7.59,0,0,0-1.06,2.49,12.59,12.59,0,0,0-.35,3,13.24,13.24,0,0,0,.3,2.85,7.28,7.28,0,0,0,1,2.42,5.15,5.15,0,0,0,1.76,1.68A5.29,5.29,0,0,0,304.73,26.34Z"/><path class="cls-1" d="M327.74,8.4a9.65,9.65,0,0,1,4.08.8,8.12,8.12,0,0,1,2.92,2.19,9.47,9.47,0,0,1,1.77,3.25,13.34,13.34,0,0,1,.59,4,12.15,12.15,0,0,1-.62,3.92,9.59,9.59,0,0,1-1.82,3.25,8.43,8.43,0,0,1-3,2.22,9.42,9.42,0,0,1-4,.82,9.79,9.79,0,0,1-4.07-.8,8.59,8.59,0,0,1-3-2.17,9.38,9.38,0,0,1-1.82-3.23,13,13,0,0,1,0-8,9.56,9.56,0,0,1,1.85-3.27,8.61,8.61,0,0,1,3-2.21A9.71,9.71,0,0,1,327.74,8.4ZM334,18.68a11.51,11.51,0,0,0-.38-3,7.49,7.49,0,0,0-1.15-2.47,5.69,5.69,0,0,0-2-1.67,6,6,0,0,0-2.81-.62,5.68,5.68,0,0,0-2.76.64,5.89,5.89,0,0,0-2,1.71,7.78,7.78,0,0,0-1.2,2.49,10.53,10.53,0,0,0-.41,2.93,10.14,10.14,0,0,0,.41,2.89A7.47,7.47,0,0,0,322.9,24a5.78,5.78,0,0,0,2,1.68,6.09,6.09,0,0,0,2.81.62A5.58,5.58,0,0,0,332.44,24a7.34,7.34,0,0,0,1.15-2.44A10.92,10.92,0,0,0,334,18.68Z"/><path class="cls-1" d="M344.86,28.41h-3V13.58c0-.59,0-1.16,0-1.73s0-1.07,0-1.51,0-1-.06-1.47h3l.07,2.71a6.92,6.92,0,0,1,2.61-2.4,7.76,7.76,0,0,1,3.59-.78,7,7,0,0,1,3.33.7,5.33,5.33,0,0,1,2.08,2,8.63,8.63,0,0,1,1.06,3,22.88,22.88,0,0,1,.3,3.85V28.41h-3V18.3c0-1.1-.05-2.11-.14-3a7.37,7.37,0,0,0-.57-2.32,3.34,3.34,0,0,0-1.31-1.49,4.46,4.46,0,0,0-2.32-.52,5.06,5.06,0,0,0-2.4.55,6.63,6.63,0,0,0-1.76,1.33,6.3,6.3,0,0,0-1.11,1.65,3.79,3.79,0,0,0-.39,1.52Z"/><path class="cls-1" d="M376.63,13.16a5.26,5.26,0,0,0-2.11-1.68,6.73,6.73,0,0,0-2.64-.53,5.65,5.65,0,0,0-2.67.61,6,6,0,0,0-2,1.67A7.56,7.56,0,0,0,366,15.7a10.34,10.34,0,0,0-.43,3,11.5,11.5,0,0,0,.37,3,7.25,7.25,0,0,0,1.16,2.42,5.41,5.41,0,0,0,2,1.61,6.43,6.43,0,0,0,2.81.58,7.89,7.89,0,0,0,5.46-2.21l.82,2.63a8.28,8.28,0,0,1-2.93,1.59,11.94,11.94,0,0,1-3.59.5,9.42,9.42,0,0,1-4-.79,8.16,8.16,0,0,1-2.87-2.15A9.18,9.18,0,0,1,363,22.72a13.59,13.59,0,0,1,0-7.92,9.85,9.85,0,0,1,1.77-3.33,8.49,8.49,0,0,1,2.88-2.24,8.73,8.73,0,0,1,3.9-.83,9.4,9.4,0,0,1,3.82.72,6,6,0,0,1,2.56,2Z"/><path class="cls-1" d="M409.12,26.22a9.34,9.34,0,0,1-3.32,2,12.51,12.51,0,0,1-4.12.63,9.61,9.61,0,0,1-3.89-.75A8.14,8.14,0,0,1,394.9,26a9,9,0,0,1-1.8-3.21,12.67,12.67,0,0,1-.62-4.09,12.61,12.61,0,0,1,.61-4,10,10,0,0,1,1.78-3.28,8.46,8.46,0,0,1,2.86-2.22,9.54,9.54,0,0,1,7.53-.09,6.91,6.91,0,0,1,2.58,2,8.75,8.75,0,0,1,1.5,3.06,14.21,14.21,0,0,1,.5,3.84c0,.14,0,.3,0,.49s0,.35,0,.5H395.65l.05.86a9.23,9.23,0,0,0,.55,2.61,6.27,6.27,0,0,0,1.21,2,5.25,5.25,0,0,0,1.88,1.32,6.48,6.48,0,0,0,2.53.47,8.5,8.5,0,0,0,3.49-.71,9,9,0,0,0,2.84-2Zm-2.4-9.41,0-.26a8.39,8.39,0,0,0-.46-2.27,5.49,5.49,0,0,0-1-1.77,4.5,4.5,0,0,0-1.57-1.15,5.21,5.21,0,0,0-2.1-.41,5.31,5.31,0,0,0-2.26.47,5.37,5.37,0,0,0-1.74,1.26,6.75,6.75,0,0,0-1.18,1.87,9,9,0,0,0-.61,2.26Z"/><path class="cls-1" d="M419.09,18.62l-6.86-9.75h3.66L421,16.72l5.28-7.85h3.22l-6.81,9.68,7,9.86h-3.61l-5.39-8-5.42,8h-3.42Z"/><path class="cls-1" d="M434.69,10.91H431v-2h3.66l.09-5.18,2.88-.89V8.87h4.61v2h-4.61V22.58c0,.44,0,.88,0,1.33a4.4,4.4,0,0,0,.25,1.24,2.07,2.07,0,0,0,.64.91,1.85,1.85,0,0,0,1.22.35,4.74,4.74,0,0,0,1.21-.16c.42-.11.88-.26,1.39-.45l0,2.35a4.67,4.67,0,0,1-1.37.54,7.73,7.73,0,0,1-1.68.16,4.74,4.74,0,0,1-2.42-.54,3.78,3.78,0,0,1-1.4-1.46,6.19,6.19,0,0,1-.66-2.13,19.17,19.17,0,0,1-.16-2.57Z"/><path class="cls-1" d="M449.42,28.41h-3V13.58c0-.8,0-1.6,0-2.4s-.05-1.57-.07-2.31h3l.11,3a6.14,6.14,0,0,1,2.05-2.52,5,5,0,0,1,2.88-.89,7.56,7.56,0,0,1,1.95.23l0,2.95a3.77,3.77,0,0,0-.92-.34,5.27,5.27,0,0,0-1.15-.12,4.36,4.36,0,0,0-2,.45,4.27,4.27,0,0,0-1.53,1.28,6.24,6.24,0,0,0-1,2,9.74,9.74,0,0,0-.35,2.69Z"/><path class="cls-1" d="M467.19,8.4a8.82,8.82,0,0,1,2.07.22,7.24,7.24,0,0,1,1.73.62,6.27,6.27,0,0,1,1.46,1,9.29,9.29,0,0,1,1.24,1.33l.11-2.69h2.94l-.08,4.82V28.41h-3l0-2.74a7,7,0,0,1-1.09,1.19,7.26,7.26,0,0,1-1.49,1,8.39,8.39,0,0,1-1.82.7,8.06,8.06,0,0,1-2.1.27,8.59,8.59,0,0,1-2.81-.43,7.78,7.78,0,0,1-2.25-1.18,8.2,8.2,0,0,1-1.72-1.76,10,10,0,0,1-1.2-2.17,12.56,12.56,0,0,1-.7-2.41,12.72,12.72,0,0,1,.31-6.16,9.75,9.75,0,0,1,1.66-3.22,8.1,8.1,0,0,1,6.67-3.12Zm.34,17.94a5.22,5.22,0,0,0,2.37-.55,5.58,5.58,0,0,0,2-1.6,8.06,8.06,0,0,0,1.33-2.62,12.42,12.42,0,0,0,.51-3.63,8.43,8.43,0,0,0-.44-2.82A6.55,6.55,0,0,0,472,12.91a5.7,5.7,0,0,0-2-1.45,6.42,6.42,0,0,0-2.6-.51,5.8,5.8,0,0,0-2,.31,5.21,5.21,0,0,0-1.57.87,5.91,5.91,0,0,0-1.19,1.3,7.5,7.5,0,0,0-.83,1.59,10.14,10.14,0,0,0-.48,1.76,11.14,11.14,0,0,0-.15,1.81,14.07,14.07,0,0,0,.12,1.8,10.65,10.65,0,0,0,.39,1.78,7.1,7.1,0,0,0,.73,1.61,5.31,5.31,0,0,0,1.17,1.33,5.42,5.42,0,0,0,1.65.89A6.64,6.64,0,0,0,467.53,26.34Z"/><path class="cls-1" d="M490.28,8.4a9.65,9.65,0,0,1,4.08.8,8.12,8.12,0,0,1,2.92,2.19,9.47,9.47,0,0,1,1.77,3.25,13.34,13.34,0,0,1,.59,4,12.15,12.15,0,0,1-.62,3.92,9.59,9.59,0,0,1-1.82,3.25,8.43,8.43,0,0,1-3,2.22,9.42,9.42,0,0,1-4,.82,9.79,9.79,0,0,1-4.07-.8,8.59,8.59,0,0,1-3-2.17,9.36,9.36,0,0,1-1.81-3.23,12.28,12.28,0,0,1-.63-4,12.45,12.45,0,0,1,.63-4,9.56,9.56,0,0,1,1.85-3.27,8.61,8.61,0,0,1,3-2.21A9.71,9.71,0,0,1,490.28,8.4Zm6.23,10.28a11.51,11.51,0,0,0-.38-3A7.49,7.49,0,0,0,495,13.24a5.69,5.69,0,0,0-2-1.67A6,6,0,0,0,490.2,11a5.68,5.68,0,0,0-2.76.64,5.76,5.76,0,0,0-2,1.71,7.6,7.6,0,0,0-1.21,2.49,10.53,10.53,0,0,0-.41,2.93,10.14,10.14,0,0,0,.41,2.89A7.29,7.29,0,0,0,485.45,24a5.66,5.66,0,0,0,2,1.68,6.09,6.09,0,0,0,2.81.62A5.58,5.58,0,0,0,495,24a7.34,7.34,0,0,0,1.15-2.44A10.92,10.92,0,0,0,496.51,18.68Z"/><path class="cls-1" d="M507.39,28.41h-3V13.58q0-1.2,0-2.4c0-.8-.05-1.57-.07-2.31h3l.11,3a6.07,6.07,0,0,1,2.05-2.52,5,5,0,0,1,2.88-.89,7.61,7.61,0,0,1,1.95.23l0,2.95a3.77,3.77,0,0,0-.92-.34,5.27,5.27,0,0,0-1.15-.12,4.36,4.36,0,0,0-2,.45,4.27,4.27,0,0,0-1.53,1.28,6.24,6.24,0,0,0-1,2,9.38,9.38,0,0,0-.35,2.69Z"/><path class="cls-1" d="M530.67,28.41l-.07-2.8a7,7,0,0,1-2.71,2.5,8.46,8.46,0,0,1-3.67.74,8.19,8.19,0,0,1-3.72-.79,7.39,7.39,0,0,1-2.6-2.16,9.65,9.65,0,0,1-1.53-3.21,15,15,0,0,1-.5-3.91,14.2,14.2,0,0,1,.53-3.94,10.08,10.08,0,0,1,1.6-3.31,7.83,7.83,0,0,1,2.67-2.28,7.68,7.68,0,0,1,3.7-.85,7.8,7.8,0,0,1,3.59.8,7,7,0,0,1,2.64,2.3V0h3V23.54c0,.76,0,1.58,0,2.45s0,1.69.07,2.42Zm-6-2.07a5.1,5.1,0,0,0,4.43-2.3,8.16,8.16,0,0,0,1.13-2.64,14.44,14.44,0,0,0,.38-3.42,9.59,9.59,0,0,0-.41-2.88,6.69,6.69,0,0,0-1.16-2.22,5.48,5.48,0,0,0-1.82-1.43,5.62,5.62,0,0,0-2.39-.5,5.26,5.26,0,0,0-2.64.63,5.38,5.38,0,0,0-1.83,1.69,7.59,7.59,0,0,0-1.06,2.49,12.59,12.59,0,0,0-.35,3,13.24,13.24,0,0,0,.3,2.85,7.28,7.28,0,0,0,1,2.42A5.15,5.15,0,0,0,522,25.71,5.29,5.29,0,0,0,524.68,26.34Z"/><path class="cls-1" d="M539.53,8.87h3V28.41h-3Zm2.9-8.3v3h-2.76V.57Z"/><path class="cls-1" d="M551.58,28.41h-3V13.58c0-.59,0-1.16,0-1.73s0-1.07,0-1.51,0-1,0-1.47h3l.07,2.71a6.89,6.89,0,0,1,2.6-2.4,7.76,7.76,0,0,1,3.59-.78,7,7,0,0,1,3.33.7,5.33,5.33,0,0,1,2.08,2,8.63,8.63,0,0,1,1.07,3,24,24,0,0,1,.29,3.85V28.41h-3V18.3c0-1.1,0-2.11-.13-3a7.36,7.36,0,0,0-.58-2.32,3.28,3.28,0,0,0-1.31-1.49,4.43,4.43,0,0,0-2.32-.52,5,5,0,0,0-2.39.55,6.52,6.52,0,0,0-1.77,1.33A6.3,6.3,0,0,0,552,14.48a3.93,3.93,0,0,0-.38,1.52Z"/><path class="cls-1" d="M578,8.4a8.94,8.94,0,0,1,2.07.22,7.4,7.4,0,0,1,1.73.62,6.48,6.48,0,0,1,1.46,1,9.89,9.89,0,0,1,1.24,1.33l.11-2.69h2.93l-.07,4.82V28.41h-3l0-2.74a6.93,6.93,0,0,1-1.08,1.19,7.54,7.54,0,0,1-1.49,1,8.28,8.28,0,0,1-1.83.7,8,8,0,0,1-2.1.27,8.59,8.59,0,0,1-2.81-.43A7.78,7.78,0,0,1,573,27.24a8.44,8.44,0,0,1-1.72-1.76A10.39,10.39,0,0,1,570,23.31a12.58,12.58,0,0,1-.71-2.41,13.85,13.85,0,0,1-.23-2.47,12.55,12.55,0,0,1,.55-3.69,9.56,9.56,0,0,1,1.66-3.22,8.33,8.33,0,0,1,2.77-2.27A8.43,8.43,0,0,1,578,8.4Zm.34,17.94a5.22,5.22,0,0,0,2.37-.55,5.55,5.55,0,0,0,1.94-1.6A8.06,8.06,0,0,0,584,21.57a12.41,12.41,0,0,0,.52-3.63,8.69,8.69,0,0,0-.44-2.82,6.73,6.73,0,0,0-1.25-2.21,5.65,5.65,0,0,0-2-1.45,6.38,6.38,0,0,0-2.6-.51,5.88,5.88,0,0,0-2,.31,5.33,5.33,0,0,0-1.57.87,5.86,5.86,0,0,0-1.18,1.3,7.07,7.07,0,0,0-.83,1.59,8.63,8.63,0,0,0-.48,1.76,11.14,11.14,0,0,0-.15,1.81,16.08,16.08,0,0,0,.11,1.8,10.65,10.65,0,0,0,.39,1.78,7.13,7.13,0,0,0,.74,1.61,5.27,5.27,0,0,0,1.16,1.33,5.48,5.48,0,0,0,1.66.89A6.64,6.64,0,0,0,578.32,26.34Z"/><path class="cls-1" d="M592.91,8.87h3V28.41h-3ZM595.8.57v3h-2.75V.57Z"/><path class="cls-1" d="M604.94,28.41h-3V13.58q0-1.2,0-2.4c0-.8,0-1.57-.07-2.31h3l.11,3a6.07,6.07,0,0,1,2-2.52,5,5,0,0,1,2.88-.89,7.48,7.48,0,0,1,1.94.23l0,2.95a3.77,3.77,0,0,0-.92-.34,5.27,5.27,0,0,0-1.15-.12,4.36,4.36,0,0,0-2,.45,4.27,4.27,0,0,0-1.53,1.28,6.24,6.24,0,0,0-1,2,9.38,9.38,0,0,0-.35,2.69Z"/><path class="cls-1" d="M630.45,26.22a9.3,9.3,0,0,1-3.31,2,12.55,12.55,0,0,1-4.12.63,9.57,9.57,0,0,1-3.89-.75,8,8,0,0,1-2.89-2.1,9,9,0,0,1-1.8-3.21,12.67,12.67,0,0,1-.63-4.09,12.62,12.62,0,0,1,.62-4,9.82,9.82,0,0,1,1.78-3.28,8.52,8.52,0,0,1,2.85-2.22,9.57,9.57,0,0,1,7.54-.09,7,7,0,0,1,2.57,2,8.6,8.6,0,0,1,1.51,3.06,14.22,14.22,0,0,1,.49,3.84c0,.14,0,.3,0,.49s0,.35,0,.5H617l.06.86a9.23,9.23,0,0,0,.55,2.61,6.1,6.1,0,0,0,1.21,2,5.16,5.16,0,0,0,1.88,1.32,6.47,6.47,0,0,0,2.52.47,8.44,8.44,0,0,0,3.49-.71,8.86,8.86,0,0,0,2.84-2Zm-2.39-9.41,0-.26a8.39,8.39,0,0,0-.46-2.27,5.49,5.49,0,0,0-1-1.77A4.54,4.54,0,0,0,625,11.36,5.13,5.13,0,0,0,622.9,11a5.28,5.28,0,0,0-4,1.73,6.53,6.53,0,0,0-1.18,1.87,9,9,0,0,0-.61,2.26Z"/><path class="cls-1" d="M663.5,28.41H647.34V.69H663V3.5H650.44v9.3h11.83v2.82H650.44v10H663.5Z"/><path class="cls-1" d="M670,10.91h-3.65v-2H670l.09-5.18,2.88-.89V8.87h4.61v2h-4.61V22.58c0,.44,0,.88,0,1.33a4.08,4.08,0,0,0,.24,1.24,2.07,2.07,0,0,0,.64.91,1.88,1.88,0,0,0,1.23.35,4.72,4.72,0,0,0,1.2-.16,13.8,13.8,0,0,0,1.39-.45l0,2.35a4.67,4.67,0,0,1-1.37.54,7.7,7.7,0,0,1-1.67.16,4.69,4.69,0,0,1-2.42-.54,3.73,3.73,0,0,1-1.41-1.46,6.19,6.19,0,0,1-.66-2.13,21,21,0,0,1-.16-2.57Z"/><path class="cls-1" d="M684.69,28.41h-3V13.58q0-1.2,0-2.4c0-.8-.05-1.57-.08-2.31h3l.1,3a6.17,6.17,0,0,1,2.06-2.52,5,5,0,0,1,2.88-.89,7.53,7.53,0,0,1,1.94.23l0,2.95a3.77,3.77,0,0,0-.92-.34,5.34,5.34,0,0,0-1.15-.12,4.36,4.36,0,0,0-2,.45A4.27,4.27,0,0,0,686,12.87a6.26,6.26,0,0,0-1,2,9.74,9.74,0,0,0-.35,2.69Z"/><path class="cls-1" d="M702.47,8.4a8.94,8.94,0,0,1,2.07.22,7.4,7.4,0,0,1,1.73.62,6.71,6.71,0,0,1,1.46,1A9.89,9.89,0,0,1,709,11.56l.11-2.69H712l-.07,4.82V28.41h-3l0-2.74a6.61,6.61,0,0,1-1.09,1.19,7.18,7.18,0,0,1-1.48,1,8.28,8.28,0,0,1-1.83.7,8.06,8.06,0,0,1-2.1.27,8.59,8.59,0,0,1-2.81-.43,7.78,7.78,0,0,1-2.25-1.18,8.44,8.44,0,0,1-1.72-1.76,10.91,10.91,0,0,1-1.2-2.17,13.32,13.32,0,0,1-.7-2.41,13.85,13.85,0,0,1-.23-2.47,12.55,12.55,0,0,1,.55-3.69,9.73,9.73,0,0,1,1.65-3.22,8.14,8.14,0,0,1,6.68-3.12Zm.34,17.94a5.22,5.22,0,0,0,2.37-.55,5.55,5.55,0,0,0,1.94-1.6,8.06,8.06,0,0,0,1.33-2.62,12.41,12.41,0,0,0,.52-3.63,8.69,8.69,0,0,0-.44-2.82,6.75,6.75,0,0,0-1.26-2.21,5.61,5.61,0,0,0-2-1.45,6.38,6.38,0,0,0-2.6-.51,5.88,5.88,0,0,0-2,.31,5.33,5.33,0,0,0-1.57.87,6.16,6.16,0,0,0-1.19,1.3,7.47,7.47,0,0,0-.82,1.59,8.63,8.63,0,0,0-.48,1.76,11.14,11.14,0,0,0-.15,1.81,14,14,0,0,0,.11,1.8,10.65,10.65,0,0,0,.39,1.78,7.13,7.13,0,0,0,.74,1.61,5.27,5.27,0,0,0,1.16,1.33,5.36,5.36,0,0,0,1.66.89A6.64,6.64,0,0,0,702.81,26.34Z"/><path class="cls-1" d="M720.39,28.41h-3V13.58c0-.59,0-1.16,0-1.73s0-1.07,0-1.51,0-1-.05-1.47h3l.08,2.71a6.82,6.82,0,0,1,2.6-2.4,7.76,7.76,0,0,1,3.59-.78,7,7,0,0,1,3.33.7,5.33,5.33,0,0,1,2.08,2,8.63,8.63,0,0,1,1.06,3,22.88,22.88,0,0,1,.3,3.85V28.41h-3V18.3c0-1.1,0-2.11-.14-3a7.37,7.37,0,0,0-.57-2.32,3.34,3.34,0,0,0-1.31-1.49A4.43,4.43,0,0,0,726,11a5.06,5.06,0,0,0-2.4.55,6.63,6.63,0,0,0-1.76,1.33,6.3,6.3,0,0,0-1.11,1.65,3.76,3.76,0,0,0-.38,1.52Z"/><path class="cls-1" d="M739.92,32a10.47,10.47,0,0,0,3,1.37,11.13,11.13,0,0,0,3.08.44,9.92,9.92,0,0,0,2.84-.37,5.5,5.5,0,0,0,2.11-1.14,5.05,5.05,0,0,0,1.33-2,8,8,0,0,0,.46-2.83V25.06A6.9,6.9,0,0,1,750,27.57a7.83,7.83,0,0,1-3.61.84,8.65,8.65,0,0,1-3.57-.7,7.41,7.41,0,0,1-2.64-2,8.89,8.89,0,0,1-1.66-3.07,13.05,13.05,0,0,1-.58-4,14.22,14.22,0,0,1,.54-3.95,9.78,9.78,0,0,1,1.62-3.28,7.93,7.93,0,0,1,2.71-2.22,8.17,8.17,0,0,1,3.79-.83,7.32,7.32,0,0,1,3.58.81,7.56,7.56,0,0,1,2.55,2.35c0-.22,0-.48,0-.79s0-.61,0-.89,0-.66.06-1h3c0,.61,0,1.22-.06,1.81s0,1,0,1.58,0,1,0,1.43V25.61a25.16,25.16,0,0,1-.14,2.6,13.63,13.63,0,0,1-.53,2.51A9.34,9.34,0,0,1,754,33a6.75,6.75,0,0,1-1.72,1.82A8.17,8.17,0,0,1,749.72,36a12.26,12.26,0,0,1-3.51.45,15.77,15.77,0,0,1-3.47-.38,13.07,13.07,0,0,1-3.16-1.18Zm12.81-14a9,9,0,0,0-.4-2.73A6.67,6.67,0,0,0,751.19,13a5.57,5.57,0,0,0-1.81-1.5,5.55,5.55,0,0,0-5,.07,5.53,5.53,0,0,0-1.86,1.68,7.33,7.33,0,0,0-1.11,2.45,11.16,11.16,0,0,0-.37,2.91,14.4,14.4,0,0,0,.29,3,6.08,6.08,0,0,0,1,2.28,4.72,4.72,0,0,0,1.81,1.46,6.67,6.67,0,0,0,2.76.51,5,5,0,0,0,4.53-2.46,8,8,0,0,0,1-2.53A14,14,0,0,0,752.73,18Z"/><path class="cls-1" d="M777.36,26.22a9.3,9.3,0,0,1-3.31,2,12.55,12.55,0,0,1-4.12.63,9.66,9.66,0,0,1-3.9-.75,8,8,0,0,1-2.88-2.1,9.16,9.16,0,0,1-1.81-3.21,13,13,0,0,1-.62-4.09,12.62,12.62,0,0,1,.62-4,9.82,9.82,0,0,1,1.78-3.28A8.52,8.52,0,0,1,766,9.22a9.57,9.57,0,0,1,7.54-.09,7,7,0,0,1,2.57,2,8.6,8.6,0,0,1,1.51,3.06,14.22,14.22,0,0,1,.49,3.84c0,.14,0,.3,0,.49s0,.35,0,.5H763.89l.06.86a9.59,9.59,0,0,0,.54,2.61,6.29,6.29,0,0,0,1.22,2,5.16,5.16,0,0,0,1.88,1.32,6.43,6.43,0,0,0,2.52.47,8.47,8.47,0,0,0,3.49-.71,8.86,8.86,0,0,0,2.84-2ZM775,16.81l0-.26a8.39,8.39,0,0,0-.46-2.27,5.68,5.68,0,0,0-1-1.77,4.54,4.54,0,0,0-1.58-1.15,5.16,5.16,0,0,0-2.09-.41,5.28,5.28,0,0,0-4,1.73,6.53,6.53,0,0,0-1.18,1.87,9,9,0,0,0-.61,2.26Z"/><path class="cls-1" d="M785.75,28.41h-3V13.58q0-1.2,0-2.4c0-.8,0-1.57-.08-2.31h3l.1,3a6.17,6.17,0,0,1,2.06-2.52,5,5,0,0,1,2.88-.89,7.53,7.53,0,0,1,1.94.23l0,2.95a3.77,3.77,0,0,0-.92-.34,5.27,5.27,0,0,0-1.15-.12,4.36,4.36,0,0,0-2,.45,4.27,4.27,0,0,0-1.53,1.28,6.46,6.46,0,0,0-1,2,9.74,9.74,0,0,0-.35,2.69Z"/><path class="cls-1" d="M810.24,21.4l-.09-1.14q0-.5-.06-1c0-.35,0-.65,0-.92a4.36,4.36,0,0,1,.52-2.13,9.42,9.42,0,0,1,1.28-1.85c.51-.58,1.06-1.15,1.66-1.71a22.22,22.22,0,0,0,1.67-1.7,10.14,10.14,0,0,0,1.28-1.84A4.41,4.41,0,0,0,817,7a3.69,3.69,0,0,0-.43-1.85,3.83,3.83,0,0,0-1.15-1.25,5.3,5.3,0,0,0-1.65-.7A8.13,8.13,0,0,0,811.83,3a9,9,0,0,0-2.43.33,9.68,9.68,0,0,0-2.27,1V1.5a10.68,10.68,0,0,1,2.61-.95,11.58,11.58,0,0,1,2.45-.28,11,11,0,0,1,3.09.41,7.28,7.28,0,0,1,2.48,1.22A5.72,5.72,0,0,1,819.42,4a6.51,6.51,0,0,1,.6,2.89,5.07,5.07,0,0,1-.53,2.3,11.91,11.91,0,0,1-1.32,2.11c-.53.67-1.1,1.33-1.71,2s-1.19,1.24-1.71,1.84a13.38,13.38,0,0,0-1.33,1.8,3.55,3.55,0,0,0-.53,1.79c0,.3,0,.6.05.92s.06.61.1.89.1.65.16.95Zm3.43,7.22h-3.91v-4h3.91Z"/><path class="cls-1" d="M1,108.37a7,7,0,0,0,1.82,1.09,5.7,5.7,0,0,0,2.14.39,4.22,4.22,0,0,0,2.22-.57,4.54,4.54,0,0,0,1.55-1.56,8,8,0,0,0,.91-2.36,13.67,13.67,0,0,0,.3-3V82.55h3.34v19.63a16.36,16.36,0,0,1-.59,4.6A9.52,9.52,0,0,1,11,110.14a7.21,7.21,0,0,1-2.64,2,8.62,8.62,0,0,1-3.53.69,6.23,6.23,0,0,1-2.71-.56A7.21,7.21,0,0,1,0,110.75Z"/><path class="cls-1" d="M20.94,92.13l-.69-9.47h3.56l-.34,9.47Z"/><path class="cls-1" d="M38.86,90.86a10.19,10.19,0,0,1,2.23.23,8.27,8.27,0,0,1,1.87.67,7.52,7.52,0,0,1,1.57,1.07,11.48,11.48,0,0,1,1.34,1.43L46,91.37h3.16l-.08,5.19v15.85H45.87l0-3a7.63,7.63,0,0,1-1.17,1.28,8.08,8.08,0,0,1-1.6,1.1,9.38,9.38,0,0,1-2,.76,8.8,8.8,0,0,1-2.26.28,9.25,9.25,0,0,1-3-.46,8.5,8.5,0,0,1-2.43-1.27,9,9,0,0,1-1.85-1.9,11.26,11.26,0,0,1-1.29-2.33,13.6,13.6,0,0,1-.75-2.6,14.16,14.16,0,0,1-.26-2.65,13.75,13.75,0,0,1,.59-4,10.49,10.49,0,0,1,1.79-3.47,9,9,0,0,1,3-2.44A9.08,9.08,0,0,1,38.86,90.86Zm.37,19.32a5.69,5.69,0,0,0,2.55-.59,6,6,0,0,0,2.1-1.72A8.64,8.64,0,0,0,45.31,105a13.5,13.5,0,0,0,.56-3.91,9.13,9.13,0,0,0-.48-3A7.2,7.2,0,0,0,44,95.72a6,6,0,0,0-2.12-1.56,6.86,6.86,0,0,0-2.8-.55,6.54,6.54,0,0,0-2.14.33,5.74,5.74,0,0,0-1.68.94A6.05,6.05,0,0,0,34,96.27a8.73,8.73,0,0,0-.9,1.71,10.24,10.24,0,0,0-.51,1.9,11.86,11.86,0,0,0-.17,2,16.34,16.34,0,0,0,.13,1.94,10.26,10.26,0,0,0,.42,1.92,8,8,0,0,0,.79,1.74A5.67,5.67,0,0,0,35,108.85a5.8,5.8,0,0,0,1.79,1A7.32,7.32,0,0,0,39.23,110.18Z"/><path class="cls-1" d="M54.94,91.37h3.2v21h-3.2Zm3.12-8.94v3.18h-3V82.43Z"/><path class="cls-1" d="M67.86,91.37l.07,2.83a7.37,7.37,0,0,1,2.77-2.53,7.94,7.94,0,0,1,3.65-.81,7.41,7.41,0,0,1,2.13.3A6.7,6.7,0,0,1,78.3,92a6.18,6.18,0,0,1,1.45,1.3,6.29,6.29,0,0,1,1,1.71,7.54,7.54,0,0,1,2.89-3.15,8.75,8.75,0,0,1,4.33-1,7.37,7.37,0,0,1,3.49.73,5.88,5.88,0,0,1,2.18,1.91,7.68,7.68,0,0,1,1.13,2.72,15.58,15.58,0,0,1,.32,3.15v13h-3.2V101a23.19,23.19,0,0,0-.15-2.63A7.52,7.52,0,0,0,91.08,96a4.2,4.2,0,0,0-1.46-1.72,5.35,5.35,0,0,0-4.94-.09A5.55,5.55,0,0,0,83,95.68a6.82,6.82,0,0,0-1.07,2.16,8.56,8.56,0,0,0-.37,2.53v12h-3.2v-13A9.13,9.13,0,0,0,78,97.14a5.16,5.16,0,0,0-.86-1.83,4.34,4.34,0,0,0-1.53-1.24,5,5,0,0,0-2.25-.46,4.89,4.89,0,0,0-2.33.54,5.17,5.17,0,0,0-1.72,1.47,6.45,6.45,0,0,0-1.06,2.15,9.23,9.23,0,0,0-.36,2.6v12h-3.2V96.81c0-.91,0-1.82,0-2.75s0-1.83-.09-2.69Z"/><path class="cls-1" d="M118.47,110.05a10,10,0,0,1-3.57,2.16,13.54,13.54,0,0,1-4.44.67,10.34,10.34,0,0,1-4.19-.81,8.92,8.92,0,0,1-3.11-2.25,10.16,10.16,0,0,1-1.94-3.46,14.07,14.07,0,0,1-.67-4.41,13.65,13.65,0,0,1,.66-4.28,10.67,10.67,0,0,1,1.92-3.53,9.2,9.2,0,0,1,3.08-2.4,9.33,9.33,0,0,1,4.14-.88,9.22,9.22,0,0,1,4,.79,7.49,7.49,0,0,1,2.78,2.17,9.47,9.47,0,0,1,1.62,3.29,15.61,15.61,0,0,1,.53,4.15c0,.15,0,.32,0,.52s0,.38,0,.54H104l.06.93a9.73,9.73,0,0,0,.59,2.8,6.78,6.78,0,0,0,1.3,2.2,5.64,5.64,0,0,0,2,1.42,6.84,6.84,0,0,0,2.72.51,9.17,9.17,0,0,0,3.75-.76,9.55,9.55,0,0,0,3.06-2.18Zm-2.58-10.13,0-.28a8.73,8.73,0,0,0-.49-2.44,5.85,5.85,0,0,0-1.09-1.91,4.67,4.67,0,0,0-1.7-1.24,5.38,5.38,0,0,0-2.25-.44A5.67,5.67,0,0,0,106,95.47a7.15,7.15,0,0,0-1.27,2,9.87,9.87,0,0,0-.66,2.44Z"/><path class="cls-1" d="M139.15,81.81v30.6H136V81.81Z"/><path class="cls-1" d="M162.59,110.05a10,10,0,0,1-3.57,2.16,13.54,13.54,0,0,1-4.44.67,10.34,10.34,0,0,1-4.19-.81,8.92,8.92,0,0,1-3.11-2.25,10.16,10.16,0,0,1-1.94-3.46,14.07,14.07,0,0,1-.67-4.41,13.65,13.65,0,0,1,.66-4.28,10.67,10.67,0,0,1,1.92-3.53,9.2,9.2,0,0,1,3.08-2.4,9.33,9.33,0,0,1,4.14-.88,9.22,9.22,0,0,1,4,.79,7.49,7.49,0,0,1,2.78,2.17,9.47,9.47,0,0,1,1.62,3.29,15.61,15.61,0,0,1,.53,4.15c0,.15,0,.32,0,.52s0,.38,0,.54H148.09l.06.93a9.73,9.73,0,0,0,.59,2.8,6.78,6.78,0,0,0,1.3,2.2,5.64,5.64,0,0,0,2,1.42,6.84,6.84,0,0,0,2.72.51,9.17,9.17,0,0,0,3.75-.76,9.55,9.55,0,0,0,3.06-2.18ZM160,99.92l0-.28a8.73,8.73,0,0,0-.49-2.44,5.85,5.85,0,0,0-1.09-1.91,4.67,4.67,0,0,0-1.7-1.24,5.38,5.38,0,0,0-2.25-.44,5.67,5.67,0,0,0-4.31,1.86,7.15,7.15,0,0,0-1.27,2,9.87,9.87,0,0,0-.66,2.44Z"/><path class="cls-1" d="M180.53,95a7.07,7.07,0,0,0-2.52-1.1,14.09,14.09,0,0,0-3.07-.33,6.09,6.09,0,0,0-1.64.2,4.15,4.15,0,0,0-1.31.59,2.82,2.82,0,0,0-.87.92,2.29,2.29,0,0,0-.32,1.22,2.22,2.22,0,0,0,.33,1.23,3,3,0,0,0,.89.89,7,7,0,0,0,1.31.68c.51.2,1,.38,1.61.56l1.66.52a17.42,17.42,0,0,1,1.75.62,12.3,12.3,0,0,1,1.66.84,6.53,6.53,0,0,1,1.41,1.14,5,5,0,0,1,1,1.54,5.88,5.88,0,0,1-.34,4.81,6.15,6.15,0,0,1-1.84,2,8.56,8.56,0,0,1-2.62,1.16,11.75,11.75,0,0,1-3,.39,17.19,17.19,0,0,1-2-.12,11,11,0,0,1-1.93-.41,8.4,8.4,0,0,1-1.7-.74,4.63,4.63,0,0,1-1.35-1.13l.86-2.76a5.42,5.42,0,0,0,1.22,1.12,6.93,6.93,0,0,0,1.51.77,8.43,8.43,0,0,0,1.66.43,10.65,10.65,0,0,0,1.67.14,8.94,8.94,0,0,0,2-.22,5.22,5.22,0,0,0,1.58-.63,3.29,3.29,0,0,0,1.05-1,2.77,2.77,0,0,0,.38-1.45,2.56,2.56,0,0,0-.43-1.52,3.62,3.62,0,0,0-1.19-1,9,9,0,0,0-1.8-.74c-.7-.21-1.46-.45-2.28-.73a25.82,25.82,0,0,1-2.63-1,8.08,8.08,0,0,1-2-1.26,5.05,5.05,0,0,1-1.25-1.67,5.44,5.44,0,0,1-.44-2.27,5,5,0,0,1,.63-2.54,5.51,5.51,0,0,1,1.66-1.8,7.54,7.54,0,0,1,2.34-1.05,10,10,0,0,1,2.67-.35,16,16,0,0,1,3.7.4,6.9,6.9,0,0,1,2.88,1.38Z"/><path class="cls-1" d="M202.8,112.41h-3.2v-16c0-.63,0-1.25,0-1.86s0-1.15,0-1.63,0-1.07-.06-1.58h3.24l.08,2.91a7.39,7.39,0,0,1,2.8-2.58,8.37,8.37,0,0,1,3.87-.84,7.48,7.48,0,0,1,3.58.76,5.64,5.64,0,0,1,2.24,2.12A9.12,9.12,0,0,1,216.44,97a25.22,25.22,0,0,1,.32,4.14v11.28h-3.2V101.52a32.15,32.15,0,0,0-.15-3.25,7.57,7.57,0,0,0-.62-2.5,3.53,3.53,0,0,0-1.4-1.6,4.79,4.79,0,0,0-2.51-.56,5.38,5.38,0,0,0-2.57.59,7.21,7.21,0,0,0-1.91,1.44,6.8,6.8,0,0,0-1.19,1.77A4.05,4.05,0,0,0,202.8,99Z"/><path class="cls-1" d="M237,91.37h3.2v16q0,1.35,0,2.55c0,.8.06,1.63.12,2.49H237l-.05-2.77a7.49,7.49,0,0,1-6.56,3.24,8.55,8.55,0,0,1-2.6-.36,6.36,6.36,0,0,1-1.95-1,5.43,5.43,0,0,1-1.37-1.46,7.94,7.94,0,0,1-.89-1.8,11,11,0,0,1-.47-2,14.38,14.38,0,0,1-.15-2.06V91.37h3.2v12.86a6.91,6.91,0,0,0,1.19,4.44,4.56,4.56,0,0,0,3.78,1.51,5.44,5.44,0,0,0,2.47-.54,5.27,5.27,0,0,0,1.82-1.45,6.51,6.51,0,0,0,1.14-2.15,8.37,8.37,0,0,0,.39-2.57Z"/><path class="cls-1" d="M254.83,90.86a10.25,10.25,0,0,1,2.23.23,8.37,8.37,0,0,1,1.86.67,7.26,7.26,0,0,1,1.57,1.07,10.78,10.78,0,0,1,1.34,1.43l.11-2.89h3.17L265,96.56v15.85h-3.2l0-3a7.3,7.3,0,0,1-1.18,1.28,8.08,8.08,0,0,1-1.6,1.1,9.51,9.51,0,0,1-2,.76,8.86,8.86,0,0,1-2.26.28,9.31,9.31,0,0,1-3-.46,8.58,8.58,0,0,1-2.42-1.27,9.06,9.06,0,0,1-1.86-1.9,11.26,11.26,0,0,1-1.29-2.33,14.36,14.36,0,0,1-.75-2.6,14.14,14.14,0,0,1-.25-2.65,13.42,13.42,0,0,1,.59-4,10.47,10.47,0,0,1,1.78-3.47,8.78,8.78,0,0,1,7.19-3.36Zm.37,19.32a5.75,5.75,0,0,0,2.55-.59,6.08,6.08,0,0,0,2.09-1.72,8.85,8.85,0,0,0,1.44-2.83,13.51,13.51,0,0,0,.55-3.91,9.13,9.13,0,0,0-.48-3A7,7,0,0,0,260,95.72a6,6,0,0,0-2.13-1.56,6.83,6.83,0,0,0-2.8-.55,6.44,6.44,0,0,0-2.13.33,5.67,5.67,0,0,0-1.69.94A6.28,6.28,0,0,0,250,96.27a8.69,8.69,0,0,0-.89,1.71,9.54,9.54,0,0,0-.52,1.9,11.83,11.83,0,0,0-.16,2,16.28,16.28,0,0,0,.12,1.94,12.14,12.14,0,0,0,.42,1.92,8.06,8.06,0,0,0,.8,1.74,5.3,5.3,0,0,0,1.25,1.42,5.63,5.63,0,0,0,1.78,1A7.38,7.38,0,0,0,255.2,110.18Z"/><path class="cls-1" d="M271.56,116.25a11.39,11.39,0,0,0,3.22,1.47,12.12,12.12,0,0,0,3.32.48,10.94,10.94,0,0,0,3-.4,5.85,5.85,0,0,0,2.28-1.24,5.31,5.31,0,0,0,1.43-2.11,8.43,8.43,0,0,0,.49-3V108.8a7.4,7.4,0,0,1-2.94,2.71,8.46,8.46,0,0,1-3.88.9,9.17,9.17,0,0,1-3.84-.76,7.87,7.87,0,0,1-2.86-2.13,9.69,9.69,0,0,1-1.78-3.3,14.11,14.11,0,0,1-.62-4.29,15.15,15.15,0,0,1,.58-4.25,10.34,10.34,0,0,1,1.75-3.53,8.56,8.56,0,0,1,2.92-2.4,9,9,0,0,1,4.08-.89,7.91,7.91,0,0,1,3.85.87,8.21,8.21,0,0,1,2.74,2.53c0-.23,0-.51,0-.85s0-.65,0-1,0-.72.06-1.09h3.2q0,1-.06,1.95c0,.55,0,1.11-.05,1.7s0,1.1,0,1.54V109.4a26.41,26.41,0,0,1-.15,2.8,14,14,0,0,1-.57,2.69,10.05,10.05,0,0,1-1.12,2.42,7.17,7.17,0,0,1-1.85,2,8.78,8.78,0,0,1-2.75,1.31,12.89,12.89,0,0,1-3.78.49,16.85,16.85,0,0,1-3.73-.41,13.53,13.53,0,0,1-3.4-1.28Zm13.79-15.11a9.93,9.93,0,0,0-.42-2.93,7.38,7.38,0,0,0-1.24-2.4,6,6,0,0,0-1.94-1.61,6,6,0,0,0-5.35.07,6.17,6.17,0,0,0-2,1.81,8.4,8.4,0,0,0-1.2,2.64,12.45,12.45,0,0,0-.4,3.14,15,15,0,0,0,.32,3.22,6.57,6.57,0,0,0,1.07,2.46,4.94,4.94,0,0,0,1.95,1.57,7.06,7.06,0,0,0,3,.55A5.33,5.33,0,0,0,284,107a8.44,8.44,0,0,0,1-2.73A14.9,14.9,0,0,0,285.35,101.14Z"/><path class="cls-1" d="M311.88,110.05a10,10,0,0,1-3.57,2.16,13.54,13.54,0,0,1-4.44.67,10.34,10.34,0,0,1-4.19-.81,8.92,8.92,0,0,1-3.11-2.25,10,10,0,0,1-1.94-3.46A14.07,14.07,0,0,1,294,102a13.65,13.65,0,0,1,.66-4.28,10.67,10.67,0,0,1,1.92-3.53,9.2,9.2,0,0,1,3.08-2.4,9.33,9.33,0,0,1,4.14-.88,9.22,9.22,0,0,1,4,.79,7.49,7.49,0,0,1,2.78,2.17,9.47,9.47,0,0,1,1.62,3.29,15.61,15.61,0,0,1,.53,4.15c0,.15,0,.32,0,.52s0,.38,0,.54H297.38l.05.93a10.45,10.45,0,0,0,.59,2.8,7,7,0,0,0,1.31,2.2,5.64,5.64,0,0,0,2,1.42,6.84,6.84,0,0,0,2.72.51,9.17,9.17,0,0,0,3.75-.76,9.55,9.55,0,0,0,3.06-2.18ZM309.3,99.92l0-.28a9.1,9.1,0,0,0-.49-2.44,5.85,5.85,0,0,0-1.09-1.91,4.67,4.67,0,0,0-1.7-1.24,5.41,5.41,0,0,0-2.25-.44,5.67,5.67,0,0,0-4.31,1.86,7.15,7.15,0,0,0-1.27,2,9.87,9.87,0,0,0-.66,2.44Z"/><path class="cls-1" d="M329.81,95a6.91,6.91,0,0,0-2.52-1.1,13.93,13.93,0,0,0-3.06-.33,6.09,6.09,0,0,0-1.64.2,4.15,4.15,0,0,0-1.31.59,2.82,2.82,0,0,0-.87.92,2.5,2.5,0,0,0,0,2.45,3.06,3.06,0,0,0,.9.89,7,7,0,0,0,1.31.68c.51.2,1,.38,1.61.56l1.65.52a16.75,16.75,0,0,1,1.76.62,12.3,12.3,0,0,1,1.66.84,6.53,6.53,0,0,1,1.41,1.14,5,5,0,0,1,1,1.54,5.88,5.88,0,0,1-.34,4.81,6.15,6.15,0,0,1-1.84,2,8.56,8.56,0,0,1-2.62,1.16,11.75,11.75,0,0,1-3,.39,17.19,17.19,0,0,1-2-.12,11,11,0,0,1-1.93-.41,8.4,8.4,0,0,1-1.7-.74,4.63,4.63,0,0,1-1.35-1.13l.86-2.76a5.42,5.42,0,0,0,1.22,1.12,7.09,7.09,0,0,0,1.5.77,8.62,8.62,0,0,0,1.66.43,10.75,10.75,0,0,0,1.67.14,8.81,8.81,0,0,0,2-.22,5.18,5.18,0,0,0,1.59-.63,3.29,3.29,0,0,0,1.05-1,2.77,2.77,0,0,0,.37-1.45,2.55,2.55,0,0,0-.42-1.52,3.62,3.62,0,0,0-1.19-1,9.21,9.21,0,0,0-1.8-.74c-.7-.21-1.46-.45-2.28-.73a24.94,24.94,0,0,1-2.63-1,8.08,8.08,0,0,1-2-1.26,5.05,5.05,0,0,1-1.25-1.67,5.44,5.44,0,0,1-.44-2.27,5,5,0,0,1,.63-2.54,5.4,5.4,0,0,1,1.66-1.8,7.54,7.54,0,0,1,2.34-1.05,10,10,0,0,1,2.67-.35,16,16,0,0,1,3.7.4,6.9,6.9,0,0,1,2.88,1.38Z"/><path class="cls-1" d="M341.3,112.64h-4.21v-4.31h4.21Z"/><path class="cls-1" d="M351.77,112.64h-4.2v-4.31h4.2Z"/><path class="cls-1" d="M362.25,112.64H358v-4.31h4.21Z"/><path class="cls-1" d="M383.5,81.81v30.6h-3.2V81.81Z"/><path class="cls-1" d="M407,110.05a10.09,10.09,0,0,1-3.57,2.16,13.62,13.62,0,0,1-4.44.67,10.3,10.3,0,0,1-4.19-.81,8.74,8.74,0,0,1-3.11-2.25,9.83,9.83,0,0,1-1.94-3.46,14.53,14.53,0,0,1,0-8.69,10.67,10.67,0,0,1,1.92-3.53,9.16,9.16,0,0,1,3.07-2.4,10.3,10.3,0,0,1,8.12-.09,7.45,7.45,0,0,1,2.77,2.17,9.47,9.47,0,0,1,1.62,3.29,15.21,15.21,0,0,1,.53,4.15c0,.15,0,.32,0,.52s0,.38,0,.54H392.44l.06.93a10.08,10.08,0,0,0,.59,2.8,6.8,6.8,0,0,0,1.31,2.2,5.6,5.6,0,0,0,2,1.42,6.87,6.87,0,0,0,2.72.51,9.25,9.25,0,0,0,3.76-.76,9.55,9.55,0,0,0,3.06-2.18Zm-2.58-10.13,0-.28a9.51,9.51,0,0,0-.49-2.44,5.87,5.87,0,0,0-1.1-1.91,4.64,4.64,0,0,0-1.69-1.24,5.46,5.46,0,0,0-2.26-.44,5.66,5.66,0,0,0-2.44.5,5.88,5.88,0,0,0-1.87,1.36,7.13,7.13,0,0,0-1.26,2,9.07,9.07,0,0,0-.66,2.44Z"/><path class="cls-1" d="M424.88,95a7.07,7.07,0,0,0-2.52-1.1,13.93,13.93,0,0,0-3.06-.33,6.17,6.17,0,0,0-1.65.2,4.25,4.25,0,0,0-1.31.59,2.93,2.93,0,0,0-.87.92,2.39,2.39,0,0,0-.32,1.22,2.22,2.22,0,0,0,.33,1.23,3.14,3.14,0,0,0,.89.89,7.07,7.07,0,0,0,1.32.68c.5.2,1,.38,1.6.56l1.66.52a16.59,16.59,0,0,1,1.75.62,12.42,12.42,0,0,1,1.67.84,6.47,6.47,0,0,1,1.4,1.14,5,5,0,0,1,1,1.54,5.88,5.88,0,0,1-.34,4.81,6.26,6.26,0,0,1-1.84,2,8.78,8.78,0,0,1-2.62,1.16,11.77,11.77,0,0,1-3,.39,17.15,17.15,0,0,1-2-.12,10.83,10.83,0,0,1-1.93-.41,8.49,8.49,0,0,1-1.71-.74,4.9,4.9,0,0,1-1.35-1.13l.86-2.76a5.47,5.47,0,0,0,1.23,1.12,6.64,6.64,0,0,0,1.5.77,8.62,8.62,0,0,0,1.66.43,10.75,10.75,0,0,0,1.67.14,8.88,8.88,0,0,0,2-.22,5,5,0,0,0,1.58-.63,3.1,3.1,0,0,0,1.05-1,2.77,2.77,0,0,0,.38-1.45,2.49,2.49,0,0,0-.43-1.52,3.58,3.58,0,0,0-1.18-1,9.32,9.32,0,0,0-1.81-.74c-.7-.21-1.46-.45-2.27-.73a24.94,24.94,0,0,1-2.63-1,7.89,7.89,0,0,1-2-1.26,5,5,0,0,1-1.26-1.67,5.44,5.44,0,0,1-.43-2.27,5,5,0,0,1,.63-2.54,5.4,5.4,0,0,1,1.66-1.8,7.34,7.34,0,0,1,2.34-1.05,10,10,0,0,1,2.67-.35,15.87,15.87,0,0,1,3.69.4,6.89,6.89,0,0,1,2.89,1.38Z"/><path class="cls-1" d="M447.15,112.41H444v-16c0-.63,0-1.25,0-1.86s0-1.15,0-1.63,0-1.07-.06-1.58h3.24l.08,2.91A7.53,7.53,0,0,1,450,91.7a8.37,8.37,0,0,1,3.87-.84,7.49,7.49,0,0,1,3.59.76,5.71,5.71,0,0,1,2.24,2.12A9.12,9.12,0,0,1,460.79,97a24.17,24.17,0,0,1,.32,4.14v11.28h-3.2V101.52a32.33,32.33,0,0,0-.14-3.25,8.1,8.1,0,0,0-.62-2.5,3.61,3.61,0,0,0-1.41-1.6,4.75,4.75,0,0,0-2.5-.56,5.39,5.39,0,0,0-2.58.59,7.16,7.16,0,0,0-1.9,1.44,6.56,6.56,0,0,0-1.19,1.77,4.09,4.09,0,0,0-.42,1.63Z"/><path class="cls-1" d="M481.32,91.37h3.2v16q0,1.35,0,2.55c0,.8.06,1.63.13,2.49h-3.3l-.06-2.77a7.47,7.47,0,0,1-6.55,3.24,8.51,8.51,0,0,1-2.6-.36,6.36,6.36,0,0,1-1.95-1,5.63,5.63,0,0,1-1.38-1.46,7.91,7.91,0,0,1-.88-1.8,11,11,0,0,1-.48-2,16,16,0,0,1-.14-2.06V91.37h3.2v12.86a7,7,0,0,0,1.18,4.44,4.56,4.56,0,0,0,3.78,1.51,5.35,5.35,0,0,0,4.3-2,6.49,6.49,0,0,0,1.13-2.15,8.37,8.37,0,0,0,.39-2.57Z"/><path class="cls-1" d="M499.18,90.86a10.19,10.19,0,0,1,2.23.23,8.19,8.19,0,0,1,1.86.67,7.33,7.33,0,0,1,1.58,1.07,10.72,10.72,0,0,1,1.33,1.43l.12-2.89h3.16l-.08,5.19v15.85h-3.2l0-3a7.63,7.63,0,0,1-1.17,1.28,8.38,8.38,0,0,1-1.6,1.1,9.6,9.6,0,0,1-2,.76,8.8,8.8,0,0,1-2.26.28,9.25,9.25,0,0,1-3-.46,8.5,8.5,0,0,1-2.43-1.27,8.78,8.78,0,0,1-1.85-1.9,11.26,11.26,0,0,1-1.29-2.33,13.62,13.62,0,0,1-.76-2.6,15,15,0,0,1-.25-2.65,13.75,13.75,0,0,1,.59-4A10.49,10.49,0,0,1,492,94.22a9,9,0,0,1,3-2.44A9.15,9.15,0,0,1,499.18,90.86Zm.37,19.32a5.69,5.69,0,0,0,2.55-.59,6.11,6.11,0,0,0,2.1-1.72,8.84,8.84,0,0,0,1.43-2.83,13.18,13.18,0,0,0,.55-3.91,9.39,9.39,0,0,0-.47-3,7.2,7.2,0,0,0-1.35-2.38,6,6,0,0,0-2.12-1.56,6.87,6.87,0,0,0-2.81-.55,6.48,6.48,0,0,0-2.13.33,5.79,5.79,0,0,0-1.69.94,6.53,6.53,0,0,0-1.28,1.39,8.69,8.69,0,0,0-.89,1.71,10.24,10.24,0,0,0-.51,1.9,11.86,11.86,0,0,0-.17,2,16.34,16.34,0,0,0,.13,1.94,10.26,10.26,0,0,0,.42,1.92,8,8,0,0,0,.79,1.74,5.48,5.48,0,0,0,1.25,1.42,5.68,5.68,0,0,0,1.79,1A7.32,7.32,0,0,0,499.55,110.18Z"/><path class="cls-1" d="M515.92,116.25a11.26,11.26,0,0,0,3.22,1.47,12,12,0,0,0,3.31.48,11,11,0,0,0,3.06-.4,5.85,5.85,0,0,0,2.28-1.24,5.29,5.29,0,0,0,1.42-2.11,8.42,8.42,0,0,0,.5-3V108.8a7.54,7.54,0,0,1-2.94,2.71,8.47,8.47,0,0,1-3.89.9,9.24,9.24,0,0,1-3.84-.76,7.92,7.92,0,0,1-2.85-2.13,9.69,9.69,0,0,1-1.78-3.3,13.81,13.81,0,0,1-.62-4.29,15.15,15.15,0,0,1,.58-4.25,10.5,10.5,0,0,1,1.74-3.53,8.66,8.66,0,0,1,2.92-2.4,9,9,0,0,1,4.08-.89,7.85,7.85,0,0,1,3.85.87,8.23,8.23,0,0,1,2.75,2.53c0-.23,0-.51,0-.85s0-.65,0-1,0-.72.05-1.09H533c0,.66,0,1.31,0,1.95s-.05,1.11-.05,1.7,0,1.1,0,1.54V109.4a24,24,0,0,1-.16,2.8,14,14,0,0,1-.56,2.69,10.08,10.08,0,0,1-1.13,2.42,6.89,6.89,0,0,1-1.85,2,8.72,8.72,0,0,1-2.74,1.31,12.89,12.89,0,0,1-3.78.49,16.94,16.94,0,0,1-3.74-.41,13.68,13.68,0,0,1-3.4-1.28Zm13.79-15.11a9.61,9.61,0,0,0-.43-2.93,7.17,7.17,0,0,0-1.23-2.4,6.19,6.19,0,0,0-1.95-1.61,6,6,0,0,0-5.34.07,6.07,6.07,0,0,0-2,1.81,8,8,0,0,0-1.2,2.64,12,12,0,0,0-.4,3.14,15,15,0,0,0,.32,3.22,6.41,6.41,0,0,0,1.07,2.46,4.81,4.81,0,0,0,2,1.57,7,7,0,0,0,3,.55,5.63,5.63,0,0,0,2.95-.72,5.72,5.72,0,0,0,1.93-1.92,8.67,8.67,0,0,0,1-2.73A15.58,15.58,0,0,0,529.71,101.14Z"/><path class="cls-1" d="M556.24,110.05a10.18,10.18,0,0,1-3.57,2.16,13.62,13.62,0,0,1-4.44.67,10.3,10.3,0,0,1-4.19-.81,8.74,8.74,0,0,1-3.11-2.25,9.83,9.83,0,0,1-1.94-3.46,14.53,14.53,0,0,1,0-8.69,10.67,10.67,0,0,1,1.92-3.53,9.16,9.16,0,0,1,3.07-2.4,10.3,10.3,0,0,1,8.12-.09,7.45,7.45,0,0,1,2.77,2.17,9.47,9.47,0,0,1,1.62,3.29,15.21,15.21,0,0,1,.53,4.15c0,.15,0,.32,0,.52a4.39,4.39,0,0,1,0,.54H541.73l.06.93a10.08,10.08,0,0,0,.59,2.8,6.8,6.8,0,0,0,1.31,2.2,5.6,5.6,0,0,0,2,1.42,6.84,6.84,0,0,0,2.72.51,9.25,9.25,0,0,0,3.76-.76,9.77,9.77,0,0,0,3.06-2.18Zm-2.58-10.13,0-.28a9.51,9.51,0,0,0-.49-2.44,5.87,5.87,0,0,0-1.1-1.91,4.64,4.64,0,0,0-1.69-1.24,5.46,5.46,0,0,0-2.26-.44,5.66,5.66,0,0,0-2.44.5,5.88,5.88,0,0,0-1.87,1.36,7.13,7.13,0,0,0-1.26,2,9.07,9.07,0,0,0-.66,2.44Z"/><path class="cls-1" d="M574.17,95a7.07,7.07,0,0,0-2.52-1.1,13.93,13.93,0,0,0-3.06-.33,6.12,6.12,0,0,0-1.65.2,4.25,4.25,0,0,0-1.31.59,2.82,2.82,0,0,0-.87.92,2.39,2.39,0,0,0-.32,1.22,2.22,2.22,0,0,0,.33,1.23,3.14,3.14,0,0,0,.89.89,6.77,6.77,0,0,0,1.32.68c.5.2,1,.38,1.6.56l1.66.52A16.59,16.59,0,0,1,572,101a12.42,12.42,0,0,1,1.67.84,6.47,6.47,0,0,1,1.4,1.14,5,5,0,0,1,1,1.54,5.33,5.33,0,0,1,.36,2,5.44,5.44,0,0,1-.7,2.78,6.26,6.26,0,0,1-1.84,2,8.78,8.78,0,0,1-2.62,1.16,11.77,11.77,0,0,1-3,.39,17.15,17.15,0,0,1-2-.12,10.64,10.64,0,0,1-1.93-.41,8.25,8.25,0,0,1-1.71-.74,4.9,4.9,0,0,1-1.35-1.13l.86-2.76a5.65,5.65,0,0,0,1.22,1.12,6.93,6.93,0,0,0,1.51.77,8.62,8.62,0,0,0,1.66.43,10.75,10.75,0,0,0,1.67.14,8.94,8.94,0,0,0,2-.22,5,5,0,0,0,1.58-.63,3.1,3.1,0,0,0,1.05-1,2.77,2.77,0,0,0,.38-1.45,2.49,2.49,0,0,0-.43-1.52,3.58,3.58,0,0,0-1.18-1,9.32,9.32,0,0,0-1.81-.74c-.7-.21-1.46-.45-2.27-.73a24.94,24.94,0,0,1-2.63-1,8.14,8.14,0,0,1-2-1.26,5.05,5.05,0,0,1-1.25-1.67,5.44,5.44,0,0,1-.44-2.27,5,5,0,0,1,.64-2.54,5.4,5.4,0,0,1,1.66-1.8,7.39,7.39,0,0,1,2.33-1.05,10.09,10.09,0,0,1,2.67-.35,15.9,15.9,0,0,1,3.7.4A6.9,6.9,0,0,1,575,92.64Z"/><path class="cls-1" d="M607.69,109.38A7.94,7.94,0,0,1,604.6,112a9.42,9.42,0,0,1-4.05.85,8.23,8.23,0,0,1-3.81-.84,7.92,7.92,0,0,1-2.74-2.3,10.24,10.24,0,0,1-1.66-3.45,15.7,15.7,0,0,1-.56-4.25,15.22,15.22,0,0,1,.59-4.26,11.11,11.11,0,0,1,1.72-3.56A8.24,8.24,0,0,1,601,90.86a8.88,8.88,0,0,1,3.89.82A7.5,7.5,0,0,1,607.69,94l.09-2.63H611c0,.79-.08,1.59-.1,2.38s0,1.46,0,2v25.41h-3.2Zm0-8.1a10.86,10.86,0,0,0-.42-3.1,7.46,7.46,0,0,0-1.2-2.43,5.48,5.48,0,0,0-2-1.58,5.89,5.89,0,0,0-2.64-.56,5.77,5.77,0,0,0-2.83.66,5.64,5.64,0,0,0-2,1.81,8.1,8.1,0,0,0-1.16,2.67,14.17,14.17,0,0,0,0,6.39,8.08,8.08,0,0,0,1.09,2.61,5.34,5.34,0,0,0,4.7,2.43,5.82,5.82,0,0,0,3.1-.77,5.92,5.92,0,0,0,2-2,8.66,8.66,0,0,0,1-2.85A17.54,17.54,0,0,0,607.69,101.28Z"/><path class="cls-1" d="M631.06,91.37h3.2v16c0,.9,0,1.75,0,2.55s.07,1.63.13,2.49h-3.3l-.05-2.77a7.49,7.49,0,0,1-6.56,3.24,8.55,8.55,0,0,1-2.6-.36,6.36,6.36,0,0,1-1.95-1,5.43,5.43,0,0,1-1.37-1.46,7.94,7.94,0,0,1-.89-1.8,11,11,0,0,1-.47-2,14.38,14.38,0,0,1-.15-2.06V91.37h3.2v12.86a6.91,6.91,0,0,0,1.19,4.44,4.56,4.56,0,0,0,3.78,1.51,5.44,5.44,0,0,0,2.47-.54,5.27,5.27,0,0,0,1.82-1.45,6.51,6.51,0,0,0,1.14-2.15,8.37,8.37,0,0,0,.39-2.57Z"/><path class="cls-1" d="M640.87,91.37h3.2v21h-3.2ZM644,82.43v3.18h-3V82.43Z"/><path class="cls-1" d="M665.27,121.17h-3.18V96.87c0-.29,0-.64,0-1.06s0-.87,0-1.36,0-1,0-1.53,0-1-.07-1.55h3.24l.1,3A7.86,7.86,0,0,1,672,90.86a9,9,0,0,1,4.06.86,8.08,8.08,0,0,1,2.84,2.33,10,10,0,0,1,1.68,3.41,15.06,15.06,0,0,1,.55,4.14,15.76,15.76,0,0,1-.57,4.26,11.1,11.1,0,0,1-1.71,3.6A8.35,8.35,0,0,1,676,112a8.26,8.26,0,0,1-4,.93,8,8,0,0,1-6.69-3.24Zm0-18.89a11.61,11.61,0,0,0,.4,3.15,7.45,7.45,0,0,0,1.2,2.5,5.35,5.35,0,0,0,2,1.65,5.71,5.71,0,0,0,2.67.6,5.41,5.41,0,0,0,2.8-.7,5.63,5.63,0,0,0,1.92-1.87,8.56,8.56,0,0,0,1.11-2.69,13.93,13.93,0,0,0,.36-3.19,15.12,15.12,0,0,0-.31-3,8.21,8.21,0,0,0-1-2.6,5.34,5.34,0,0,0-1.87-1.82,5.64,5.64,0,0,0-2.87-.67,5.89,5.89,0,0,0-3,.71,5.72,5.72,0,0,0-2,1.92A8.2,8.2,0,0,0,665.59,99,15.91,15.91,0,0,0,665.27,102.28Z"/><path class="cls-1" d="M693.79,90.86a10.19,10.19,0,0,1,2.23.23,8.27,8.27,0,0,1,1.87.67,7.52,7.52,0,0,1,1.57,1.07,10.78,10.78,0,0,1,1.34,1.43l.11-2.89h3.16L704,96.56v15.85H700.8l0-3a7.63,7.63,0,0,1-1.17,1.28,8.38,8.38,0,0,1-1.6,1.1,9.38,9.38,0,0,1-2,.76,8.8,8.8,0,0,1-2.26.28,9.25,9.25,0,0,1-3-.46,8.5,8.5,0,0,1-2.43-1.27,9,9,0,0,1-1.85-1.9,11.26,11.26,0,0,1-1.29-2.33,13.6,13.6,0,0,1-.75-2.6,14.16,14.16,0,0,1-.26-2.65,13.75,13.75,0,0,1,.59-4,10.49,10.49,0,0,1,1.79-3.47,9,9,0,0,1,3-2.44A9.08,9.08,0,0,1,693.79,90.86Zm.37,19.32a5.69,5.69,0,0,0,2.55-.59,6,6,0,0,0,2.1-1.72,8.64,8.64,0,0,0,1.43-2.83,13.5,13.5,0,0,0,.56-3.91,9.13,9.13,0,0,0-.48-3A7.2,7.2,0,0,0,699,95.72a6,6,0,0,0-2.12-1.56,6.83,6.83,0,0,0-2.8-.55,6.54,6.54,0,0,0-2.14.33,5.74,5.74,0,0,0-1.68.94A6.05,6.05,0,0,0,689,96.27a8.73,8.73,0,0,0-.9,1.71,10.24,10.24,0,0,0-.51,1.9,11.83,11.83,0,0,0-.16,2,16.28,16.28,0,0,0,.12,1.94,11.12,11.12,0,0,0,.42,1.92,8,8,0,0,0,.79,1.74,5.67,5.67,0,0,0,1.25,1.42,5.8,5.8,0,0,0,1.79,1A7.32,7.32,0,0,0,694.16,110.18Z"/><path class="cls-1" d="M722,95a7.07,7.07,0,0,0-2.52-1.1,14.09,14.09,0,0,0-3.07-.33,6.09,6.09,0,0,0-1.64.2,4.15,4.15,0,0,0-1.31.59,2.82,2.82,0,0,0-.87.92,2.29,2.29,0,0,0-.32,1.22,2.22,2.22,0,0,0,.33,1.23,3,3,0,0,0,.89.89,7,7,0,0,0,1.31.68c.51.2,1,.38,1.61.56l1.66.52a17.42,17.42,0,0,1,1.75.62,12.3,12.3,0,0,1,1.66.84,6.53,6.53,0,0,1,1.41,1.14,5,5,0,0,1,1,1.54,5.88,5.88,0,0,1-.34,4.81,6,6,0,0,1-1.84,2,8.56,8.56,0,0,1-2.62,1.16,11.75,11.75,0,0,1-3,.39,17.32,17.32,0,0,1-2-.12,11,11,0,0,1-1.93-.41,8.4,8.4,0,0,1-1.7-.74,4.63,4.63,0,0,1-1.35-1.13l.86-2.76a5.65,5.65,0,0,0,1.22,1.12,6.93,6.93,0,0,0,1.51.77,8.43,8.43,0,0,0,1.66.43,10.65,10.65,0,0,0,1.67.14,8.94,8.94,0,0,0,2-.22,5.22,5.22,0,0,0,1.58-.63,3.19,3.19,0,0,0,1-1,2.77,2.77,0,0,0,.38-1.45,2.56,2.56,0,0,0-.43-1.52,3.62,3.62,0,0,0-1.19-1,9,9,0,0,0-1.8-.74c-.7-.21-1.46-.45-2.28-.73a25.82,25.82,0,0,1-2.63-1,8.27,8.27,0,0,1-2-1.26,5.05,5.05,0,0,1-1.25-1.67,5.44,5.44,0,0,1-.44-2.27,5,5,0,0,1,.63-2.54,5.51,5.51,0,0,1,1.66-1.8,7.54,7.54,0,0,1,2.34-1.05,10,10,0,0,1,2.67-.35,16,16,0,0,1,3.7.4,6.9,6.9,0,0,1,2.88,1.38Z"/><path class="cls-1" d="M741.5,95a7.07,7.07,0,0,0-2.52-1.1,14.09,14.09,0,0,0-3.07-.33,6.09,6.09,0,0,0-1.64.2,4.15,4.15,0,0,0-1.31.59,2.82,2.82,0,0,0-.87.92,2.29,2.29,0,0,0-.32,1.22,2.22,2.22,0,0,0,.33,1.23,2.9,2.9,0,0,0,.89.89,7,7,0,0,0,1.31.68c.51.2,1,.38,1.61.56l1.65.52a16.75,16.75,0,0,1,1.76.62,12.3,12.3,0,0,1,1.66.84,6.53,6.53,0,0,1,1.41,1.14,5,5,0,0,1,1,1.54,5.88,5.88,0,0,1-.34,4.81,6,6,0,0,1-1.84,2,8.56,8.56,0,0,1-2.62,1.16,11.75,11.75,0,0,1-3,.39,17.19,17.19,0,0,1-2-.12,11,11,0,0,1-1.93-.41,8.4,8.4,0,0,1-1.7-.74,4.63,4.63,0,0,1-1.35-1.13l.86-2.76a5.42,5.42,0,0,0,1.22,1.12,6.93,6.93,0,0,0,1.51.77,8.43,8.43,0,0,0,1.66.43,10.55,10.55,0,0,0,1.67.14,8.94,8.94,0,0,0,2-.22,5.22,5.22,0,0,0,1.58-.63,3.29,3.29,0,0,0,1-1,2.77,2.77,0,0,0,.38-1.45,2.56,2.56,0,0,0-.43-1.52,3.62,3.62,0,0,0-1.19-1,9,9,0,0,0-1.8-.74c-.7-.21-1.46-.45-2.28-.73a25.82,25.82,0,0,1-2.63-1,8.08,8.08,0,0,1-2-1.26,5.05,5.05,0,0,1-1.25-1.67,5.44,5.44,0,0,1-.44-2.27,5,5,0,0,1,.63-2.54,5.4,5.4,0,0,1,1.66-1.8,7.54,7.54,0,0,1,2.34-1.05,10,10,0,0,1,2.67-.35,16,16,0,0,1,3.7.4,6.9,6.9,0,0,1,2.88,1.38Z"/><path class="cls-1" d="M765.84,110.05a10,10,0,0,1-3.57,2.16,13.58,13.58,0,0,1-4.44.67,10.34,10.34,0,0,1-4.19-.81,8.83,8.83,0,0,1-3.11-2.25,10,10,0,0,1-1.94-3.46,14.53,14.53,0,0,1,0-8.69,10.67,10.67,0,0,1,1.92-3.53,9.16,9.16,0,0,1,3.07-2.4,10.3,10.3,0,0,1,8.12-.09,7.45,7.45,0,0,1,2.77,2.17,9.13,9.13,0,0,1,1.62,3.29,15.21,15.21,0,0,1,.54,4.15c0,.15,0,.32,0,.52s0,.38,0,.54H751.33l.06.93a10.45,10.45,0,0,0,.59,2.8,6.8,6.8,0,0,0,1.31,2.2,5.6,5.6,0,0,0,2,1.42,6.87,6.87,0,0,0,2.72.51,9.25,9.25,0,0,0,3.76-.76,9.55,9.55,0,0,0,3.06-2.18Zm-2.58-10.13,0-.28a9.1,9.1,0,0,0-.49-2.44,5.87,5.87,0,0,0-1.1-1.91A4.64,4.64,0,0,0,760,94.05a5.46,5.46,0,0,0-2.26-.44,5.63,5.63,0,0,0-4.3,1.86,6.94,6.94,0,0,0-1.27,2,9.46,9.46,0,0,0-.66,2.44Z"/><path class="cls-1" d="M774.9,112.41h-3.2v-16c0-.63,0-1.25,0-1.86s0-1.15,0-1.63,0-1.07-.06-1.58h3.24l.08,2.91a7.46,7.46,0,0,1,2.8-2.58,8.37,8.37,0,0,1,3.87-.84,7.45,7.45,0,0,1,3.58.76,5.67,5.67,0,0,1,2.25,2.12A9.31,9.31,0,0,1,788.54,97a25.22,25.22,0,0,1,.32,4.14v11.28h-3.2V101.52a32.15,32.15,0,0,0-.15-3.25,7.57,7.57,0,0,0-.62-2.5,3.53,3.53,0,0,0-1.4-1.6,4.77,4.77,0,0,0-2.5-.56,5.39,5.39,0,0,0-2.58.59,7,7,0,0,0-1.9,1.44,6.6,6.6,0,0,0-1.2,1.77A4.05,4.05,0,0,0,774.9,99Z"/><path class="cls-1" d="M796.75,93.57h-3.94v-2.2h3.94l.1-5.58,3.1-1v6.54h5v2.2h-5v12.57c0,.46,0,.94,0,1.42a4.69,4.69,0,0,0,.26,1.34,2.24,2.24,0,0,0,.69,1,2.05,2.05,0,0,0,1.32.38,5.08,5.08,0,0,0,1.3-.18,12.06,12.06,0,0,0,1.49-.48l0,2.53a5,5,0,0,1-1.47.58,8.22,8.22,0,0,1-1.8.17,5,5,0,0,1-2.61-.58,4,4,0,0,1-1.52-1.57,6.6,6.6,0,0,1-.7-2.3,20.21,20.21,0,0,1-.18-2.76Z"/><path class="cls-1" d="M813.47,112.64h-4.21v-4.31h4.21Z"/><path class="cls-1" d="M823.94,112.64h-4.21v-4.31h4.21Z"/><path class="cls-1" d="M834.41,112.64h-4.2v-4.31h4.2Z"/><path class="cls-1" d="M844.05,81.81v30.6h-3.2V81.81Z"/><path class="cls-1" d="M858.64,90.86a10.32,10.32,0,0,1,2.23.23,8.37,8.37,0,0,1,1.86.67,7.26,7.26,0,0,1,1.57,1.07,10.78,10.78,0,0,1,1.34,1.43l.11-2.89h3.16l-.07,5.19v15.85h-3.2l0-3a7.71,7.71,0,0,1-1.18,1.28,8.08,8.08,0,0,1-1.6,1.1,9.38,9.38,0,0,1-2,.76,8.75,8.75,0,0,1-2.26.28,9.25,9.25,0,0,1-3-.46,8.45,8.45,0,0,1-2.42-1.27,8.82,8.82,0,0,1-1.86-1.9,11.26,11.26,0,0,1-1.29-2.33,13.6,13.6,0,0,1-.75-2.6,14.16,14.16,0,0,1-.26-2.65,13.43,13.43,0,0,1,.6-4,10.47,10.47,0,0,1,1.78-3.47,8.78,8.78,0,0,1,7.19-3.36Zm.36,19.32a5.69,5.69,0,0,0,2.55-.59,6,6,0,0,0,2.1-1.72,8.64,8.64,0,0,0,1.43-2.83,13.5,13.5,0,0,0,.56-3.91,9.13,9.13,0,0,0-.48-3,6.87,6.87,0,0,0-1.35-2.38,6,6,0,0,0-2.12-1.56,6.83,6.83,0,0,0-2.8-.55,6.54,6.54,0,0,0-2.14.33,5.74,5.74,0,0,0-1.68.94,6.28,6.28,0,0,0-1.28,1.39A8.69,8.69,0,0,0,852.9,98a9.54,9.54,0,0,0-.52,1.9,11.83,11.83,0,0,0-.16,2,16.28,16.28,0,0,0,.12,1.94,12.14,12.14,0,0,0,.42,1.92,7.61,7.61,0,0,0,.8,1.74,5.3,5.3,0,0,0,1.25,1.42,5.63,5.63,0,0,0,1.78,1A7.36,7.36,0,0,0,859,110.18Zm-4.07-28.37h4.15l4.79,6.57h-2.5Z"/><path class="cls-1" d="M873,102.38l0-2.81h11.07l0,2.81Z"/><path class="cls-1" d="M891.76,112.41H888.5c0-.93,0-1.77.06-2.52l0-1c0-.33,0-.62,0-.9s0-.51,0-.71,0-.35,0-.43V81.81h3.2V94.34a7.53,7.53,0,0,1,3.07-2.63,9.52,9.52,0,0,1,4-.85,8.26,8.26,0,0,1,3.95.88,7.7,7.7,0,0,1,2.7,2.36,10.14,10.14,0,0,1,1.54,3.43,16.79,16.79,0,0,1,.49,4.12,16,16,0,0,1-.57,4.33,11,11,0,0,1-1.7,3.58A8.15,8.15,0,0,1,902.5,112a9.16,9.16,0,0,1-7.75.06,8,8,0,0,1-2.91-2.45Zm12.63-11.28A10,10,0,0,0,904,98.2a7.51,7.51,0,0,0-1.23-2.39,6.05,6.05,0,0,0-2-1.61,5.45,5.45,0,0,0-2.58-.59,5.58,5.58,0,0,0-2.76.66,6,6,0,0,0-2,1.81,7.92,7.92,0,0,0-1.2,2.63,12,12,0,0,0-.4,3.14,14.45,14.45,0,0,0,.32,3.22,6.51,6.51,0,0,0,1.06,2.45,4.94,4.94,0,0,0,1.95,1.57,7.1,7.1,0,0,0,3,.55,5.66,5.66,0,0,0,3-.72A5.81,5.81,0,0,0,903,107a8.51,8.51,0,0,0,1-2.72A14.9,14.9,0,0,0,904.39,101.13Z"/><path class="cls-1" d="M920.39,90.86a10.32,10.32,0,0,1,2.23.23,8.37,8.37,0,0,1,1.86.67,7.26,7.26,0,0,1,1.57,1.07,10.78,10.78,0,0,1,1.34,1.43l.11-2.89h3.16l-.07,5.19v15.85h-3.2l0-3a7.63,7.63,0,0,1-1.17,1.28,8.08,8.08,0,0,1-1.6,1.1,9.38,9.38,0,0,1-2,.76,8.75,8.75,0,0,1-2.26.28,9.25,9.25,0,0,1-3-.46,8.64,8.64,0,0,1-2.43-1.27,9,9,0,0,1-1.85-1.9,11.26,11.26,0,0,1-1.29-2.33,13.6,13.6,0,0,1-.75-2.6,14.16,14.16,0,0,1-.26-2.65,13.43,13.43,0,0,1,.6-4,10.29,10.29,0,0,1,1.78-3.47,9,9,0,0,1,3-2.44A9.09,9.09,0,0,1,920.39,90.86Zm.36,19.32a5.69,5.69,0,0,0,2.55-.59,6,6,0,0,0,2.1-1.72,8.64,8.64,0,0,0,1.43-2.83,13.5,13.5,0,0,0,.56-3.91,9.13,9.13,0,0,0-.48-3,7,7,0,0,0-1.35-2.38,6,6,0,0,0-2.12-1.56,6.83,6.83,0,0,0-2.8-.55,6.54,6.54,0,0,0-2.14.33,5.74,5.74,0,0,0-1.68.94,6.05,6.05,0,0,0-1.28,1.39,8.18,8.18,0,0,0-.89,1.71,9.54,9.54,0,0,0-.52,1.9,11.83,11.83,0,0,0-.16,2,16.28,16.28,0,0,0,.12,1.94,11.12,11.12,0,0,0,.42,1.92,8,8,0,0,0,.79,1.74,5.52,5.52,0,0,0,1.26,1.42,5.63,5.63,0,0,0,1.78,1A7.36,7.36,0,0,0,920.75,110.18Z"/><path class="cls-1" d="M948.56,95a7.07,7.07,0,0,0-2.52-1.1,14,14,0,0,0-3.06-.33,6.12,6.12,0,0,0-1.65.2,4.15,4.15,0,0,0-1.31.59,2.82,2.82,0,0,0-.87.92,2.29,2.29,0,0,0-.32,1.22,2.22,2.22,0,0,0,.33,1.23,3,3,0,0,0,.89.89,7,7,0,0,0,1.31.68c.51.2,1,.38,1.61.56l1.66.52a17.42,17.42,0,0,1,1.75.62,11.73,11.73,0,0,1,1.66.84,6.53,6.53,0,0,1,1.41,1.14,5.17,5.17,0,0,1,1,1.54,5.53,5.53,0,0,1,.35,2,5.43,5.43,0,0,1-.69,2.78,6.18,6.18,0,0,1-1.85,2,8.61,8.61,0,0,1-2.61,1.16,11.88,11.88,0,0,1-3,.39,17.32,17.32,0,0,1-2-.12,11,11,0,0,1-1.93-.41,8.4,8.4,0,0,1-1.7-.74,4.63,4.63,0,0,1-1.35-1.13l.86-2.76a5.65,5.65,0,0,0,1.22,1.12,6.93,6.93,0,0,0,1.51.77,8.43,8.43,0,0,0,1.66.43,10.65,10.65,0,0,0,1.67.14,8.94,8.94,0,0,0,2-.22,5.12,5.12,0,0,0,1.58-.63,3.1,3.1,0,0,0,1-1,2.77,2.77,0,0,0,.38-1.45,2.56,2.56,0,0,0-.43-1.52,3.62,3.62,0,0,0-1.19-1,9,9,0,0,0-1.8-.74c-.7-.21-1.46-.45-2.27-.73a25.15,25.15,0,0,1-2.64-1,8.27,8.27,0,0,1-2-1.26,5.05,5.05,0,0,1-1.25-1.67,5.44,5.44,0,0,1-.44-2.27,5,5,0,0,1,.63-2.54,5.51,5.51,0,0,1,1.66-1.8,7.54,7.54,0,0,1,2.34-1.05,10.09,10.09,0,0,1,2.67-.35,16,16,0,0,1,3.7.4,6.9,6.9,0,0,1,2.88,1.38Z"/><path class="cls-1" d="M960,112.64h-4.2v-4.31H960Z"/><path class="cls-1" d="M970.52,112.64h-4.21v-4.31h4.21Z"/><path class="cls-1" d="M981,112.64h-4.21v-4.31H981Z"/><path class="cls-1" d="M990.63,81.81v30.6h-3.2V81.81Z"/><path class="cls-1" d="M1005.21,90.86a10.25,10.25,0,0,1,2.23.23,8.37,8.37,0,0,1,1.86.67,7,7,0,0,1,1.57,1.07,10.16,10.16,0,0,1,1.34,1.43l.12-2.89h3.16l-.08,5.19v15.85h-3.2l0-3a7.63,7.63,0,0,1-1.17,1.28,8.71,8.71,0,0,1-1.6,1.1,9.6,9.6,0,0,1-2,.76,8.8,8.8,0,0,1-2.26.28,9.35,9.35,0,0,1-3-.46,8.58,8.58,0,0,1-2.42-1.27,8.78,8.78,0,0,1-1.85-1.9,10.4,10.4,0,0,1-1.29-2.33,13.62,13.62,0,0,1-.76-2.6,14.14,14.14,0,0,1-.25-2.65,13.75,13.75,0,0,1,.59-4A10.66,10.66,0,0,1,998,94.22a8.78,8.78,0,0,1,7.19-3.36Zm.37,19.32a5.75,5.75,0,0,0,2.55-.59,6.08,6.08,0,0,0,2.09-1.72,8.85,8.85,0,0,0,1.44-2.83,13.51,13.51,0,0,0,.55-3.91,9.39,9.39,0,0,0-.47-3,7.2,7.2,0,0,0-1.35-2.38,6,6,0,0,0-2.12-1.56,6.87,6.87,0,0,0-2.81-.55,6.44,6.44,0,0,0-2.13.33,5.79,5.79,0,0,0-1.69.94,6.28,6.28,0,0,0-1.28,1.39,8.69,8.69,0,0,0-.89,1.71,10.24,10.24,0,0,0-.51,1.9,11.86,11.86,0,0,0-.17,2,14.48,14.48,0,0,0,.13,1.94,11.1,11.1,0,0,0,.41,1.92,8.06,8.06,0,0,0,.8,1.74,5.48,5.48,0,0,0,1.25,1.42,5.74,5.74,0,0,0,1.78,1A7.42,7.42,0,0,0,1005.58,110.18Zm-4.07-28.37h4.15l4.79,6.57h-2.51Z"/><path class="cls-1" d="M1019.6,102.38l0-2.81h11.07l0,2.81Z"/><path class="cls-1" d="M1038.33,112.41h-3.25c0-.93,0-1.77.05-2.52,0-.33,0-.65,0-1s0-.62,0-.9,0-.51,0-.71,0-.35,0-.43V81.81h3.2V94.34a7.56,7.56,0,0,1,3.08-2.63,9.44,9.44,0,0,1,4-.85,8.27,8.27,0,0,1,4,.88,7.76,7.76,0,0,1,2.69,2.36,10.14,10.14,0,0,1,1.54,3.43,16.79,16.79,0,0,1,.5,4.12,16,16,0,0,1-.57,4.33,11,11,0,0,1-1.71,3.58,8.12,8.12,0,0,1-2.84,2.43,9.19,9.19,0,0,1-7.76.06,8.17,8.17,0,0,1-2.91-2.45ZM1051,101.13a9.66,9.66,0,0,0-.43-2.93,7.12,7.12,0,0,0-1.23-2.39,6,6,0,0,0-2-1.61,5.45,5.45,0,0,0-2.58-.59,5.61,5.61,0,0,0-2.76.66,6.07,6.07,0,0,0-2,1.81,8.13,8.13,0,0,0-1.2,2.63,12,12,0,0,0-.4,3.14,15.07,15.07,0,0,0,.32,3.22,6.52,6.52,0,0,0,1.07,2.45,4.94,4.94,0,0,0,2,1.57,7.06,7.06,0,0,0,3,.55,5.62,5.62,0,0,0,2.94-.72,5.72,5.72,0,0,0,1.93-1.92,8.29,8.29,0,0,0,1.05-2.72A15.58,15.58,0,0,0,1051,101.13Z"/><path class="cls-1" d="M1067,90.86a10.25,10.25,0,0,1,2.23.23,8.37,8.37,0,0,1,1.86.67,7.26,7.26,0,0,1,1.57,1.07,10.16,10.16,0,0,1,1.34,1.43l.12-2.89h3.16l-.08,5.19v15.85H1074l0-3a7.3,7.3,0,0,1-1.18,1.28,8.3,8.3,0,0,1-1.59,1.1,9.83,9.83,0,0,1-2,.76,8.8,8.8,0,0,1-2.26.28,9.35,9.35,0,0,1-3-.46,8.58,8.58,0,0,1-2.42-1.27,8.78,8.78,0,0,1-1.85-1.9,10.4,10.4,0,0,1-1.29-2.33,13.62,13.62,0,0,1-.76-2.6,14.14,14.14,0,0,1-.25-2.65,13.42,13.42,0,0,1,.59-4,10.47,10.47,0,0,1,1.78-3.47,8.78,8.78,0,0,1,7.19-3.36Zm.37,19.32a5.75,5.75,0,0,0,2.55-.59,6.08,6.08,0,0,0,2.09-1.72,8.85,8.85,0,0,0,1.44-2.83,13.51,13.51,0,0,0,.55-3.91,9.13,9.13,0,0,0-.48-3,7,7,0,0,0-1.34-2.38,6,6,0,0,0-2.13-1.56,6.83,6.83,0,0,0-2.8-.55,6.44,6.44,0,0,0-2.13.33,5.67,5.67,0,0,0-1.69.94,6.28,6.28,0,0,0-1.28,1.39,8.69,8.69,0,0,0-.89,1.71,9.54,9.54,0,0,0-.52,1.9,11.83,11.83,0,0,0-.16,2,14.48,14.48,0,0,0,.13,1.94,11.1,11.1,0,0,0,.41,1.92,8.06,8.06,0,0,0,.8,1.74,5.3,5.3,0,0,0,1.25,1.42,5.74,5.74,0,0,0,1.78,1A7.38,7.38,0,0,0,1067.33,110.18Z"/><path class="cls-1" d="M1095.13,95a7.07,7.07,0,0,0-2.52-1.1,13.93,13.93,0,0,0-3.06-.33,6.17,6.17,0,0,0-1.65.2,4.25,4.25,0,0,0-1.31.59,3,3,0,0,0-.87.92,2.39,2.39,0,0,0-.32,1.22,2.22,2.22,0,0,0,.33,1.23,3.14,3.14,0,0,0,.89.89,7.4,7.4,0,0,0,1.32.68c.5.2,1,.38,1.61.56l1.65.52a16.59,16.59,0,0,1,1.75.62,12.42,12.42,0,0,1,1.67.84A6.24,6.24,0,0,1,1096,103a5,5,0,0,1,1,1.54,5.88,5.88,0,0,1-.34,4.81,6.15,6.15,0,0,1-1.84,2,8.78,8.78,0,0,1-2.62,1.16,11.77,11.77,0,0,1-3,.39,17.15,17.15,0,0,1-2-.12,10.83,10.83,0,0,1-1.93-.41,8.49,8.49,0,0,1-1.71-.74,4.9,4.9,0,0,1-1.35-1.13l.86-2.76a5.47,5.47,0,0,0,1.23,1.12,6.64,6.64,0,0,0,1.5.77,8.62,8.62,0,0,0,1.66.43,10.75,10.75,0,0,0,1.67.14,8.88,8.88,0,0,0,2-.22,5,5,0,0,0,1.58-.63,3.1,3.1,0,0,0,1-1,2.77,2.77,0,0,0,.38-1.45,2.49,2.49,0,0,0-.43-1.52,3.58,3.58,0,0,0-1.18-1,9.32,9.32,0,0,0-1.81-.74c-.7-.21-1.46-.45-2.27-.73a24.94,24.94,0,0,1-2.63-1,7.89,7.89,0,0,1-2-1.26,5,5,0,0,1-1.26-1.67,5.44,5.44,0,0,1-.43-2.27,5,5,0,0,1,.63-2.54,5.4,5.4,0,0,1,1.66-1.8,7.34,7.34,0,0,1,2.34-1.05,10,10,0,0,1,2.67-.35,15.87,15.87,0,0,1,3.69.4,6.89,6.89,0,0,1,2.89,1.38Z"/><path class="cls-1" d="M1106.62,112.64h-4.21v-4.31h4.21Z"/><path class="cls-1" d="M1117.09,112.64h-4.21v-4.31h4.21Z"/><path class="cls-1" d="M1127.56,112.64h-4.21v-4.31h4.21Z"/><path class="cls-1" d="M7.08,156.34v40.07H2.89V156.34Z"/><path class="cls-1" d="M37.78,193.32a13.2,13.2,0,0,1-4.67,2.82,17.79,17.79,0,0,1-5.82.89A13.46,13.46,0,0,1,21.81,196,11.58,11.58,0,0,1,17.73,193a13.18,13.18,0,0,1-2.54-4.53,18.28,18.28,0,0,1-.87-5.77,17.83,17.83,0,0,1,.86-5.62,14,14,0,0,1,2.52-4.62,12,12,0,0,1,4-3.14,12.23,12.23,0,0,1,5.42-1.15,12.17,12.17,0,0,1,5.21,1A9.86,9.86,0,0,1,36,172.07a12.24,12.24,0,0,1,2.12,4.31,19.86,19.86,0,0,1,.7,5.42c0,.2,0,.43,0,.69s0,.49,0,.71h-20l.07,1.21a13.13,13.13,0,0,0,.78,3.68A8.76,8.76,0,0,0,21.35,191,7.38,7.38,0,0,0,24,192.83a9.08,9.08,0,0,0,3.56.65,12,12,0,0,0,4.92-1,12.72,12.72,0,0,0,4-2.84Zm-3.37-13.26,0-.38a11.65,11.65,0,0,0-.65-3.19A7.57,7.57,0,0,0,32.3,174a6.34,6.34,0,0,0-2.22-1.63,7.29,7.29,0,0,0-2.95-.57,7.33,7.33,0,0,0-5.64,2.44,9,9,0,0,0-1.66,2.63,12.49,12.49,0,0,0-.87,3.2Z"/><path class="cls-1" d="M61.27,173.67a8.86,8.86,0,0,0-3.3-1.44,17.67,17.67,0,0,0-4-.44,8.19,8.19,0,0,0-2.16.27,5.35,5.35,0,0,0-1.71.76A3.68,3.68,0,0,0,48.94,174a3.17,3.17,0,0,0-.41,1.6,2.91,2.91,0,0,0,.43,1.61,4,4,0,0,0,1.16,1.17,9,9,0,0,0,1.73.88c.66.26,1.36.51,2.1.74s1.4.44,2.17.67,1.53.51,2.29.82a15.34,15.34,0,0,1,2.18,1.1,8.4,8.4,0,0,1,1.84,1.49,6.47,6.47,0,0,1,1.27,2,7.06,7.06,0,0,1,.47,2.66,7,7,0,0,1-.91,3.63A8,8,0,0,1,60.84,195a11,11,0,0,1-3.43,1.53,15.36,15.36,0,0,1-4,.51,21.46,21.46,0,0,1-2.66-.16,14.55,14.55,0,0,1-2.53-.54,11.54,11.54,0,0,1-2.24-1,6.63,6.63,0,0,1-1.76-1.48l1.12-3.63A7.08,7.08,0,0,0,47,191.74a9.15,9.15,0,0,0,2,1,11.34,11.34,0,0,0,2.17.56,13.82,13.82,0,0,0,2.19.17,11.32,11.32,0,0,0,2.62-.28,6.65,6.65,0,0,0,2.07-.83A4.17,4.17,0,0,0,59.38,191a3.58,3.58,0,0,0,.5-1.89,3.31,3.31,0,0,0-.56-2,4.84,4.84,0,0,0-1.55-1.32,12.27,12.27,0,0,0-2.37-1c-.92-.27-1.91-.59-3-.95A35.36,35.36,0,0,1,49,182.52a10.72,10.72,0,0,1-2.61-1.66,6.37,6.37,0,0,1-1.64-2.19,7.07,7.07,0,0,1-.57-3,6.53,6.53,0,0,1,.82-3.33A7.21,7.21,0,0,1,47.16,170a9.94,9.94,0,0,1,3.06-1.39,13.71,13.71,0,0,1,3.5-.45,21.07,21.07,0,0,1,4.84.52,9,9,0,0,1,3.77,1.81Z"/><path class="cls-1" d="M90.35,168.86l.11,3.7a9.67,9.67,0,0,1,3.61-3.31,10.45,10.45,0,0,1,4.79-1.06,9.68,9.68,0,0,1,2.78.39,9.44,9.44,0,0,1,2.39,1.08,8.1,8.1,0,0,1,1.89,1.71,8.75,8.75,0,0,1,1.3,2.24,9.7,9.7,0,0,1,3.78-4.12,11.36,11.36,0,0,1,5.66-1.3,9.77,9.77,0,0,1,4.57.95,7.69,7.69,0,0,1,2.86,2.51,9.82,9.82,0,0,1,1.47,3.56,20,20,0,0,1,.42,4.12v17.08h-4.19v-15a30.51,30.51,0,0,0-.19-3.44,9.62,9.62,0,0,0-.83-3.1,5.56,5.56,0,0,0-1.92-2.24,6,6,0,0,0-3.43-.86,6.19,6.19,0,0,0-3,.73,7.38,7.38,0,0,0-2.26,2,9.38,9.38,0,0,0-1.41,2.83,11.49,11.49,0,0,0-.48,3.32v15.76H104v-17a12.08,12.08,0,0,0-.35-2.94,6.83,6.83,0,0,0-1.13-2.4,5.43,5.43,0,0,0-2-1.63,6.59,6.59,0,0,0-2.94-.6,6.31,6.31,0,0,0-3.06.71,6.7,6.7,0,0,0-2.25,1.92,8.65,8.65,0,0,0-1.39,2.82,12.21,12.21,0,0,0-.46,3.41v15.76h-4.2V176q0-1.78,0-3.6c0-1.22-.07-2.39-.12-3.52Z"/><path class="cls-1" d="M156.64,193.32a13.33,13.33,0,0,1-4.68,2.82,17.77,17.77,0,0,1-5.81.89,13.48,13.48,0,0,1-5.49-1.06,11.45,11.45,0,0,1-4.07-2.95,13,13,0,0,1-2.54-4.53,19.07,19.07,0,0,1,0-11.39,14.16,14.16,0,0,1,2.52-4.62,12,12,0,0,1,4-3.14,13.51,13.51,0,0,1,10.63-.12,9.86,9.86,0,0,1,3.63,2.85,12.07,12.07,0,0,1,2.12,4.31,19.86,19.86,0,0,1,.7,5.42c0,.2,0,.43,0,.69s0,.49,0,.71h-20l.08,1.21a13.49,13.49,0,0,0,.77,3.68A8.76,8.76,0,0,0,140.2,191a7.38,7.38,0,0,0,2.65,1.87,9.08,9.08,0,0,0,3.56.65,12,12,0,0,0,4.92-1,12.61,12.61,0,0,0,4-2.84Zm-3.38-13.26,0-.38a12,12,0,0,0-.64-3.19,7.77,7.77,0,0,0-1.44-2.5,6.21,6.21,0,0,0-2.21-1.63,7.37,7.37,0,0,0-3-.57,7.37,7.37,0,0,0-5.64,2.44,9.19,9.19,0,0,0-1.66,2.63,12.48,12.48,0,0,0-.86,3.2Z"/><path class="cls-1" d="M168.47,196.41h-4.19V175.49c0-1.13,0-2.25-.05-3.38s-.07-2.21-.1-3.25h4.19l.15,4.16a8.6,8.6,0,0,1,2.9-3.54,7,7,0,0,1,4.06-1.27,10.83,10.83,0,0,1,2.74.33l.05,4.16a4.84,4.84,0,0,0-1.29-.47,7.09,7.09,0,0,0-1.63-.17,6.21,6.21,0,0,0-2.79.63,6,6,0,0,0-2.16,1.81,8.91,8.91,0,0,0-1.38,2.87,13.48,13.48,0,0,0-.5,3.79Z"/><path class="cls-1" d="M181.19,168.86h4.63L193,187.39c.12.3.26.71.43,1.22s.33,1,.49,1.54.37,1.22.56,1.89c.16-.65.34-1.27.53-1.86s.3-1,.46-1.53a10.6,10.6,0,0,1,.43-1.26l7-18.53h4.49l-11,27.55h-4.27Z"/><path class="cls-1" d="M233.92,193.32a13.33,13.33,0,0,1-4.68,2.82,17.72,17.72,0,0,1-5.81.89,13.48,13.48,0,0,1-5.49-1.06,11.54,11.54,0,0,1-4.07-2.95,13,13,0,0,1-2.54-4.53,19.07,19.07,0,0,1,0-11.39,14.16,14.16,0,0,1,2.52-4.62,12,12,0,0,1,4-3.14,13.51,13.51,0,0,1,10.63-.12,9.7,9.7,0,0,1,3.63,2.85,12.07,12.07,0,0,1,2.12,4.31,19.86,19.86,0,0,1,.7,5.42c0,.2,0,.43,0,.69s0,.49,0,.71h-20l.08,1.21a13.49,13.49,0,0,0,.77,3.68,8.76,8.76,0,0,0,1.71,2.87,7.38,7.38,0,0,0,2.65,1.87,9.08,9.08,0,0,0,3.56.65,12,12,0,0,0,4.92-1,12.61,12.61,0,0,0,4-2.84Zm-3.38-13.26,0-.38a12,12,0,0,0-.64-3.19,7.77,7.77,0,0,0-1.44-2.5,6.21,6.21,0,0,0-2.21-1.63,7.34,7.34,0,0,0-3-.57,7.37,7.37,0,0,0-5.64,2.44,9.19,9.19,0,0,0-1.66,2.63,12.48,12.48,0,0,0-.86,3.2Z"/><path class="cls-1" d="M241.56,168.86h4.19v27.55h-4.19Zm4.09-11.71v4.16h-3.89v-4.16Z"/><path class="cls-1" d="M258.55,156.34v40.07h-4.19V156.34Z"/><path class="cls-1" d="M271.32,156.34v40.07h-4.19V156.34Z"/><path class="cls-1" d="M302,193.32a13.29,13.29,0,0,1-4.67,2.82,17.79,17.79,0,0,1-5.82.89,13.48,13.48,0,0,1-5.49-1.06A11.63,11.63,0,0,1,282,193a13,13,0,0,1-2.54-4.53,19,19,0,0,1,0-11.39,14,14,0,0,1,2.51-4.62,12,12,0,0,1,4-3.14,13.49,13.49,0,0,1,10.62-.12,9.81,9.81,0,0,1,3.64,2.85,12.41,12.41,0,0,1,2.12,4.31,20.26,20.26,0,0,1,.69,5.42c0,.2,0,.43,0,.69s0,.49,0,.71H283l.08,1.21a13.49,13.49,0,0,0,.77,3.68,9.12,9.12,0,0,0,1.71,2.87,7.38,7.38,0,0,0,2.65,1.87,9.09,9.09,0,0,0,3.57.65,12,12,0,0,0,4.92-1,12.68,12.68,0,0,0,4-2.84Zm-3.38-13.26,0-.38a12,12,0,0,0-.65-3.19,7.94,7.94,0,0,0-1.43-2.5,6.34,6.34,0,0,0-2.22-1.63,7.34,7.34,0,0,0-3-.57,7.37,7.37,0,0,0-5.64,2.44,9.19,9.19,0,0,0-1.66,2.63,12.48,12.48,0,0,0-.86,3.2Z"/><path class="cls-1" d="M327.73,168.86h4.19v20.95c0,1.18,0,2.29,0,3.34s.08,2.13.16,3.26h-4.31l-.08-3.62a9.8,9.8,0,0,1-8.58,4.24,11.33,11.33,0,0,1-3.41-.47,8.47,8.47,0,0,1-2.55-1.28,7.38,7.38,0,0,1-1.8-1.9,10.22,10.22,0,0,1-1.16-2.37,14.18,14.18,0,0,1-.62-2.61,19.06,19.06,0,0,1-.19-2.7V168.86h4.19V185.7a9,9,0,0,0,1.55,5.81c1,1.32,2.7,2,4.95,2a7.28,7.28,0,0,0,3.24-.69,7.17,7.17,0,0,0,2.39-1.91,8.57,8.57,0,0,0,1.48-2.81,11,11,0,0,0,.51-3.37Z"/><path class="cls-1" d="M347,182.61l-9.67-13.75h5.15l7.22,11.06,7.44-11.06h4.54l-9.6,13.64L362,196.41h-5.1l-7.59-11.22-7.65,11.22h-4.82Z"/><path class="cls-1" d="M386.5,196.41h-4.19V175.49q0-1.23,0-2.43c0-.79,0-1.51,0-2.13s-.06-1.41-.08-2.07h4.24l.11,3.81a9.67,9.67,0,0,1,3.67-3.38,10.85,10.85,0,0,1,5.06-1.1,9.92,9.92,0,0,1,4.7,1,7.46,7.46,0,0,1,2.93,2.78,12.05,12.05,0,0,1,1.5,4.26,32.33,32.33,0,0,1,.42,5.42v14.77h-4.19V182.15a42.3,42.3,0,0,0-.19-4.25,10.51,10.51,0,0,0-.81-3.28,4.77,4.77,0,0,0-1.84-2.1,6.35,6.35,0,0,0-3.28-.73,7.23,7.23,0,0,0-3.38.77,9.37,9.37,0,0,0-2.49,1.88,9,9,0,0,0-1.56,2.33,5.38,5.38,0,0,0-.54,2.13Z"/><path class="cls-1" d="M431.24,168.86h4.19v20.95c0,1.18,0,2.29,0,3.34s.08,2.13.17,3.26h-4.32l-.08-3.62a9.77,9.77,0,0,1-8.58,4.24,11.26,11.26,0,0,1-3.4-.47,8.41,8.41,0,0,1-2.56-1.28,7.38,7.38,0,0,1-1.8-1.9,10.19,10.19,0,0,1-1.15-2.37,14.2,14.2,0,0,1-.63-2.61,20.66,20.66,0,0,1-.19-2.7V168.86h4.19V185.7c0,2.56.5,4.5,1.55,5.81s2.7,2,4.95,2a7.28,7.28,0,0,0,3.24-.69,7.07,7.07,0,0,0,2.39-1.91,8.39,8.39,0,0,0,1.48-2.81,11,11,0,0,0,.51-3.37Z"/><path class="cls-1" d="M454.63,168.19a12.58,12.58,0,0,1,2.92.31,10.36,10.36,0,0,1,2.44.87,9.25,9.25,0,0,1,2.06,1.4,13.71,13.71,0,0,1,1.75,1.88l.15-3.79h4.14l-.1,6.79v20.76H463.8l.05-3.86a9.86,9.86,0,0,1-1.54,1.67,10.18,10.18,0,0,1-2.09,1.44,12.35,12.35,0,0,1-2.58,1,11.43,11.43,0,0,1-3,.38,12.37,12.37,0,0,1-4-.6,11.27,11.27,0,0,1-3.17-1.67,11.9,11.9,0,0,1-2.43-2.48,14.72,14.72,0,0,1-1.69-3.06,18.15,18.15,0,0,1-1-3.4,18.8,18.8,0,0,1-.33-3.48,17.73,17.73,0,0,1,.78-5.21,13.67,13.67,0,0,1,2.33-4.54,11.52,11.52,0,0,1,9.41-4.4Zm.49,25.29a7.46,7.46,0,0,0,3.33-.76,7.87,7.87,0,0,0,2.75-2.26,11.69,11.69,0,0,0,1.88-3.7,17.87,17.87,0,0,0,.72-5.12,12.2,12.2,0,0,0-.62-4,9.36,9.36,0,0,0-1.77-3.12,7.87,7.87,0,0,0-2.78-2,9,9,0,0,0-3.67-.72,8.17,8.17,0,0,0-2.79.44,7.3,7.3,0,0,0-2.21,1.22,8.63,8.63,0,0,0-1.68,1.83,10.81,10.81,0,0,0-1.16,2.24,13.19,13.19,0,0,0-.68,2.48,15.88,15.88,0,0,0-.21,2.56,20,20,0,0,0,.16,2.53,13.66,13.66,0,0,0,.55,2.51,10.07,10.07,0,0,0,1,2.29,7.11,7.11,0,0,0,1.64,1.86A7.77,7.77,0,0,0,452,193,9.81,9.81,0,0,0,455.12,193.48Z"/><path class="cls-1" d="M476.55,201.43a14.9,14.9,0,0,0,4.22,1.94,16.13,16.13,0,0,0,4.34.62,14,14,0,0,0,4-.53,7.65,7.65,0,0,0,3-1.61,7,7,0,0,0,1.87-2.77,11,11,0,0,0,.65-4v-3.41a10,10,0,0,1-3.85,3.54,11.05,11.05,0,0,1-5.09,1.18,12.17,12.17,0,0,1-5-1,10.47,10.47,0,0,1-3.74-2.79,12.68,12.68,0,0,1-2.33-4.33,18.27,18.27,0,0,1-.81-5.61,19.93,19.93,0,0,1,.76-5.57,13.68,13.68,0,0,1,2.28-4.62,11,11,0,0,1,3.83-3.14,11.61,11.61,0,0,1,5.34-1.17,10.32,10.32,0,0,1,5,1.14,10.77,10.77,0,0,1,3.6,3.32c0-.31,0-.68,0-1.12s0-.85.05-1.25,0-.94.08-1.42H499c0,.86-.06,1.71-.08,2.55s-.05,1.46-.06,2.23,0,1.44,0,2v16.82a32.34,32.34,0,0,1-.21,3.66,18.42,18.42,0,0,1-.73,3.53,13.3,13.3,0,0,1-1.48,3.17A9.36,9.36,0,0,1,494,205.4a11.79,11.79,0,0,1-3.6,1.71,17.29,17.29,0,0,1-4.95.64,21.81,21.81,0,0,1-4.89-.54,17.56,17.56,0,0,1-4.45-1.67Zm18.06-19.78a13,13,0,0,0-.56-3.84,9.48,9.48,0,0,0-1.62-3.13,7.76,7.76,0,0,0-2.55-2.11,7.2,7.2,0,0,0-3.38-.78,7.28,7.28,0,0,0-3.61.87,7.72,7.72,0,0,0-2.62,2.37,10.48,10.48,0,0,0-1.57,3.45,15.88,15.88,0,0,0-.53,4.12,19.46,19.46,0,0,0,.42,4.22A8.54,8.54,0,0,0,480,190a6.47,6.47,0,0,0,2.55,2.06,9.35,9.35,0,0,0,3.89.72,7.29,7.29,0,0,0,3.86-.95,7.5,7.5,0,0,0,2.53-2.51,11.3,11.3,0,0,0,1.37-3.57A20,20,0,0,0,494.61,181.65Z"/><path class="cls-1" d="M529.35,193.32a13.33,13.33,0,0,1-4.68,2.82,17.72,17.72,0,0,1-5.81.89,13.48,13.48,0,0,1-5.49-1.06A11.54,11.54,0,0,1,509.3,193a13,13,0,0,1-2.54-4.53,19,19,0,0,1,0-11.39,14,14,0,0,1,2.51-4.62,12,12,0,0,1,4-3.14,13.51,13.51,0,0,1,10.63-.12,9.7,9.7,0,0,1,3.63,2.85,12.07,12.07,0,0,1,2.12,4.31,19.86,19.86,0,0,1,.7,5.42c0,.2,0,.43,0,.69s0,.49,0,.71h-20l.08,1.21a13.49,13.49,0,0,0,.77,3.68,9.12,9.12,0,0,0,1.71,2.87,7.38,7.38,0,0,0,2.65,1.87,9.09,9.09,0,0,0,3.57.65,11.93,11.93,0,0,0,4.91-1,12.61,12.61,0,0,0,4-2.84ZM526,180.06l0-.38a12,12,0,0,0-.64-3.19,7.77,7.77,0,0,0-1.44-2.5,6.21,6.21,0,0,0-2.21-1.63,7.34,7.34,0,0,0-3-.57,7.37,7.37,0,0,0-5.64,2.44,9.19,9.19,0,0,0-1.66,2.63,12.48,12.48,0,0,0-.86,3.2Z"/><path class="cls-1" d="M552.83,173.67a8.72,8.72,0,0,0-3.3-1.44,17.54,17.54,0,0,0-4-.44,8.19,8.19,0,0,0-2.16.27,5.35,5.35,0,0,0-1.71.76,3.75,3.75,0,0,0-1.14,1.21,3.08,3.08,0,0,0-.42,1.6,2.91,2.91,0,0,0,.43,1.61,4.2,4.2,0,0,0,1.17,1.17,8.91,8.91,0,0,0,1.72.88c.66.26,1.36.51,2.11.74s1.39.44,2.16.67,1.54.51,2.3.82a15.34,15.34,0,0,1,2.18,1.1,8.9,8.9,0,0,1,1.84,1.49,6.63,6.63,0,0,1,1.26,2,6.87,6.87,0,0,1,.47,2.66,7,7,0,0,1-.91,3.63,8,8,0,0,1-2.41,2.57,11,11,0,0,1-3.43,1.53,15.47,15.47,0,0,1-4,.51,21.51,21.51,0,0,1-2.67-.16,14.75,14.75,0,0,1-2.53-.54,11.19,11.19,0,0,1-2.23-1,6.53,6.53,0,0,1-1.77-1.48l1.13-3.63a7,7,0,0,0,1.6,1.48,9.39,9.39,0,0,0,2,1,11.53,11.53,0,0,0,2.17.56,13.82,13.82,0,0,0,2.19.17,11.32,11.32,0,0,0,2.62-.28,6.46,6.46,0,0,0,2.07-.83A4.11,4.11,0,0,0,551,191a3.57,3.57,0,0,0,.49-1.89,3.31,3.31,0,0,0-.56-2,4.73,4.73,0,0,0-1.55-1.32,12,12,0,0,0-2.37-1c-.91-.27-1.9-.59-3-.95a36.64,36.64,0,0,1-3.45-1.35,10.85,10.85,0,0,1-2.6-1.66,6.4,6.4,0,0,1-1.65-2.19,7.07,7.07,0,0,1-.57-3,6.53,6.53,0,0,1,.83-3.33,7.18,7.18,0,0,1,2.17-2.35,9.94,9.94,0,0,1,3.06-1.39,13.77,13.77,0,0,1,3.5-.45,21,21,0,0,1,4.84.52,9.06,9.06,0,0,1,3.78,1.81Z"/><path class="cls-1" d="M580.14,191.5h5.43V197h-5.43Zm4.21-5.1h-2.92l-1-29h5Z"/></g></g></svg>